<mxfile host="app.diagrams.net" agent="Mozilla/5.0 (Windows NT 10.0; Win64; x64) AppleWebKit/537.36 (KHTML, like Gecko) Chrome/141.0.0.0 Safari/537.36 Edg/141.0.0.0" version="28.2.5">
  <diagram name="Page-1" id="uu9apJHvtSvlk6zBUSl8">
    <mxGraphModel dx="2100" dy="574" grid="1" gridSize="10" guides="1" tooltips="1" connect="1" arrows="1" fold="1" page="1" pageScale="1" pageWidth="827" pageHeight="1169" math="0" shadow="0">
      <root>
        <mxCell id="0" />
        <mxCell id="1" parent="0" />
        <mxCell id="DMoWGZLRylLb-BpsMf23-2" value="FileOps.c" style="swimlane;fontStyle=1;align=center;verticalAlign=top;childLayout=stackLayout;horizontal=1;startSize=26;horizontalStack=0;resizeParent=1;resizeParentMax=0;resizeLast=0;collapsible=1;marginBottom=0;whiteSpace=wrap;html=1;" parent="1" vertex="1">
          <mxGeometry x="40" y="40" width="200" height="140" as="geometry" />
        </mxCell>
        <mxCell id="DMoWGZLRylLb-BpsMf23-3" value="" style="line;strokeWidth=1;fillColor=none;align=left;verticalAlign=middle;spacingTop=-1;spacingLeft=3;spacingRight=3;rotatable=0;labelPosition=right;points=[];portConstraint=eastwest;strokeColor=inherit;" parent="DMoWGZLRylLb-BpsMf23-2" vertex="1">
          <mxGeometry y="26" width="200" height="8" as="geometry" />
        </mxCell>
        <mxCell id="DMoWGZLRylLb-BpsMf23-4" value="&lt;div&gt;+ loadGame(* GameParam: bool&lt;/div&gt;+ saveGame(* GameParam): bool" style="text;strokeColor=none;fillColor=none;align=left;verticalAlign=top;spacingLeft=4;spacingRight=4;overflow=hidden;rotatable=0;points=[[0,0.5],[1,0.5]];portConstraint=eastwest;whiteSpace=wrap;html=1;" parent="DMoWGZLRylLb-BpsMf23-2" vertex="1">
          <mxGeometry y="34" width="200" height="36" as="geometry" />
        </mxCell>
        <mxCell id="DMoWGZLRylLb-BpsMf23-5" value="+ loadShop(* Shop): bool&lt;div&gt;+ saveShop(* Shop): bool&lt;/div&gt;" style="text;strokeColor=none;fillColor=none;align=left;verticalAlign=top;spacingLeft=4;spacingRight=4;overflow=hidden;rotatable=0;points=[[0,0.5],[1,0.5]];portConstraint=eastwest;whiteSpace=wrap;html=1;" parent="DMoWGZLRylLb-BpsMf23-2" vertex="1">
          <mxGeometry y="70" width="200" height="40" as="geometry" />
        </mxCell>
        <mxCell id="DMoWGZLRylLb-BpsMf23-6" value="+ loadMonster(* Game" style="text;strokeColor=none;fillColor=none;align=left;verticalAlign=top;spacingLeft=4;spacingRight=4;overflow=hidden;rotatable=0;points=[[0,0.5],[1,0.5]];portConstraint=eastwest;whiteSpace=wrap;html=1;" parent="DMoWGZLRylLb-BpsMf23-2" vertex="1">
          <mxGeometry y="110" width="200" height="30" as="geometry" />
        </mxCell>
        <mxCell id="DMoWGZLRylLb-BpsMf23-7" value="Combat.c" style="swimlane;fontStyle=0;childLayout=stackLayout;horizontal=1;startSize=26;fillColor=none;horizontalStack=0;resizeParent=1;resizeParentMax=0;resizeLast=0;collapsible=1;marginBottom=0;whiteSpace=wrap;html=1;" parent="1" vertex="1">
          <mxGeometry x="40" y="200" width="170" height="112" as="geometry" />
        </mxCell>
        <mxCell id="DMoWGZLRylLb-BpsMf23-8" value="+ monsterList: monsterObject" style="text;strokeColor=none;fillColor=none;align=left;verticalAlign=top;spacingLeft=4;spacingRight=4;overflow=hidden;rotatable=0;points=[[0,0.5],[1,0.5]];portConstraint=eastwest;whiteSpace=wrap;html=1;" parent="DMoWGZLRylLb-BpsMf23-7" vertex="1">
          <mxGeometry y="26" width="170" height="26" as="geometry" />
        </mxCell>
        <mxCell id="DMoWGZLRylLb-BpsMf23-9" value="" style="line;strokeWidth=1;fillColor=none;align=left;verticalAlign=middle;spacingTop=-1;spacingLeft=3;spacingRight=3;rotatable=0;labelPosition=right;points=[];portConstraint=eastwest;strokeColor=inherit;" parent="DMoWGZLRylLb-BpsMf23-7" vertex="1">
          <mxGeometry y="52" width="170" height="8" as="geometry" />
        </mxCell>
        <mxCell id="DMoWGZLRylLb-BpsMf23-10" value="+ field: type" style="text;strokeColor=none;fillColor=none;align=left;verticalAlign=top;spacingLeft=4;spacingRight=4;overflow=hidden;rotatable=0;points=[[0,0.5],[1,0.5]];portConstraint=eastwest;whiteSpace=wrap;html=1;" parent="DMoWGZLRylLb-BpsMf23-7" vertex="1">
          <mxGeometry y="60" width="170" height="26" as="geometry" />
        </mxCell>
        <mxCell id="DMoWGZLRylLb-BpsMf23-11" value="+ field: type" style="text;strokeColor=none;fillColor=none;align=left;verticalAlign=top;spacingLeft=4;spacingRight=4;overflow=hidden;rotatable=0;points=[[0,0.5],[1,0.5]];portConstraint=eastwest;whiteSpace=wrap;html=1;" parent="DMoWGZLRylLb-BpsMf23-7" vertex="1">
          <mxGeometry y="86" width="170" height="26" as="geometry" />
        </mxCell>
        <mxCell id="DMoWGZLRylLb-BpsMf23-12" style="edgeStyle=orthogonalEdgeStyle;rounded=0;orthogonalLoop=1;jettySize=auto;html=1;" parent="1" source="DMoWGZLRylLb-BpsMf23-13" target="DMoWGZLRylLb-BpsMf23-70" edge="1">
          <mxGeometry relative="1" as="geometry" />
        </mxCell>
        <mxCell id="DMoWGZLRylLb-BpsMf23-13" value="Start" style="strokeWidth=2;html=1;shape=mxgraph.flowchart.start_2;whiteSpace=wrap;" parent="1" vertex="1">
          <mxGeometry x="520" y="562" width="70" height="68" as="geometry" />
        </mxCell>
        <mxCell id="DMoWGZLRylLb-BpsMf23-14" value="Hiện main menu" style="rounded=1;whiteSpace=wrap;html=1;absoluteArcSize=1;arcSize=14;strokeWidth=2;" parent="1" vertex="1">
          <mxGeometry x="-56.230000000000004" y="320" width="95" height="50" as="geometry" />
        </mxCell>
        <mxCell id="DMoWGZLRylLb-BpsMf23-15" style="edgeStyle=orthogonalEdgeStyle;rounded=0;orthogonalLoop=1;jettySize=auto;html=1;" parent="1" source="DMoWGZLRylLb-BpsMf23-17" target="DMoWGZLRylLb-BpsMf23-27" edge="1">
          <mxGeometry relative="1" as="geometry">
            <mxPoint x="33.940000000000055" y="567" as="sourcePoint" />
          </mxGeometry>
        </mxCell>
        <mxCell id="DMoWGZLRylLb-BpsMf23-16" style="edgeStyle=orthogonalEdgeStyle;rounded=0;orthogonalLoop=1;jettySize=auto;html=1;" parent="1" source="DMoWGZLRylLb-BpsMf23-17" target="DMoWGZLRylLb-BpsMf23-19" edge="1">
          <mxGeometry relative="1" as="geometry">
            <mxPoint x="-8.55555555555543" y="607" as="sourcePoint" />
          </mxGeometry>
        </mxCell>
        <mxCell id="DMoWGZLRylLb-BpsMf23-17" value="New game" style="strokeWidth=2;html=1;shape=mxgraph.flowchart.decision;whiteSpace=wrap;" parent="1" vertex="1">
          <mxGeometry x="-48.56" y="530" width="85" height="80" as="geometry" />
        </mxCell>
        <mxCell id="DMoWGZLRylLb-BpsMf23-18" style="edgeStyle=orthogonalEdgeStyle;rounded=0;orthogonalLoop=1;jettySize=auto;html=1;" parent="1" source="DMoWGZLRylLb-BpsMf23-19" target="DMoWGZLRylLb-BpsMf23-80" edge="1">
          <mxGeometry relative="1" as="geometry" />
        </mxCell>
        <mxCell id="DMoWGZLRylLb-BpsMf23-19" value="Load game" style="strokeWidth=2;html=1;shape=mxgraph.flowchart.decision;whiteSpace=wrap;" parent="1" vertex="1">
          <mxGeometry x="-48.56" y="637" width="85" height="80" as="geometry" />
        </mxCell>
        <mxCell id="DMoWGZLRylLb-BpsMf23-20" style="edgeStyle=orthogonalEdgeStyle;rounded=0;orthogonalLoop=1;jettySize=auto;html=1;" parent="1" source="DMoWGZLRylLb-BpsMf23-21" target="DMoWGZLRylLb-BpsMf23-25" edge="1">
          <mxGeometry relative="1" as="geometry" />
        </mxCell>
        <mxCell id="DMoWGZLRylLb-BpsMf23-21" value="Thoát" style="strokeWidth=2;html=1;shape=mxgraph.flowchart.decision;whiteSpace=wrap;" parent="1" vertex="1">
          <mxGeometry x="-48.56" y="782" width="85" height="80" as="geometry" />
        </mxCell>
        <mxCell id="DMoWGZLRylLb-BpsMf23-22" style="edgeStyle=orthogonalEdgeStyle;rounded=0;orthogonalLoop=1;jettySize=auto;html=1;entryX=0;entryY=0.5;entryDx=0;entryDy=0;entryPerimeter=0;" parent="1" source="DMoWGZLRylLb-BpsMf23-24" target="DMoWGZLRylLb-BpsMf23-19" edge="1">
          <mxGeometry relative="1" as="geometry">
            <mxPoint x="-101.06" y="662" as="targetPoint" />
            <Array as="points">
              <mxPoint x="290" y="752" />
              <mxPoint x="-100" y="752" />
              <mxPoint x="-100" y="662" />
            </Array>
          </mxGeometry>
        </mxCell>
        <mxCell id="DMoWGZLRylLb-BpsMf23-23" style="edgeStyle=orthogonalEdgeStyle;rounded=0;orthogonalLoop=1;jettySize=auto;html=1;" parent="1" source="DMoWGZLRylLb-BpsMf23-24" target="DMoWGZLRylLb-BpsMf23-193" edge="1">
          <mxGeometry relative="1" as="geometry" />
        </mxCell>
        <mxCell id="DMoWGZLRylLb-BpsMf23-24" value="Lỗi" style="strokeWidth=2;html=1;shape=mxgraph.flowchart.decision;whiteSpace=wrap;" parent="1" vertex="1">
          <mxGeometry x="250" y="635" width="80" height="80" as="geometry" />
        </mxCell>
        <mxCell id="DMoWGZLRylLb-BpsMf23-25" value="Kết thúc chương trình" style="strokeWidth=2;html=1;shape=mxgraph.flowchart.terminator;whiteSpace=wrap;" parent="1" vertex="1">
          <mxGeometry x="-58.56" y="902" width="100" height="60" as="geometry" />
        </mxCell>
        <mxCell id="DMoWGZLRylLb-BpsMf23-26" style="edgeStyle=orthogonalEdgeStyle;rounded=0;orthogonalLoop=1;jettySize=auto;html=1;entryX=0;entryY=0.5;entryDx=0;entryDy=0;" parent="1" source="DMoWGZLRylLb-BpsMf23-27" target="DMoWGZLRylLb-BpsMf23-29" edge="1">
          <mxGeometry relative="1" as="geometry" />
        </mxCell>
        <mxCell id="DMoWGZLRylLb-BpsMf23-27" value="Luồng tạo nhân vật" style="rounded=1;whiteSpace=wrap;html=1;absoluteArcSize=1;arcSize=14;strokeWidth=2;" parent="1" vertex="1">
          <mxGeometry x="98.94" y="537" width="90" height="70" as="geometry" />
        </mxCell>
        <mxCell id="DMoWGZLRylLb-BpsMf23-28" style="edgeStyle=orthogonalEdgeStyle;rounded=0;orthogonalLoop=1;jettySize=auto;html=1;" parent="1" source="DMoWGZLRylLb-BpsMf23-29" target="DMoWGZLRylLb-BpsMf23-193" edge="1">
          <mxGeometry relative="1" as="geometry" />
        </mxCell>
        <mxCell id="DMoWGZLRylLb-BpsMf23-29" value="Luồng lưu game" style="rounded=1;whiteSpace=wrap;html=1;absoluteArcSize=1;arcSize=14;strokeWidth=2;" parent="1" vertex="1">
          <mxGeometry x="260" y="537" width="100" height="70" as="geometry" />
        </mxCell>
        <mxCell id="DMoWGZLRylLb-BpsMf23-30" style="edgeStyle=orthogonalEdgeStyle;rounded=0;orthogonalLoop=1;jettySize=auto;html=1;" parent="1" source="DMoWGZLRylLb-BpsMf23-32" target="DMoWGZLRylLb-BpsMf23-34" edge="1">
          <mxGeometry relative="1" as="geometry" />
        </mxCell>
        <mxCell id="DMoWGZLRylLb-BpsMf23-31" value="Co" style="edgeLabel;html=1;align=center;verticalAlign=middle;resizable=0;points=[];" parent="DMoWGZLRylLb-BpsMf23-30" vertex="1" connectable="0">
          <mxGeometry x="-0.3333" y="7" relative="1" as="geometry">
            <mxPoint as="offset" />
          </mxGeometry>
        </mxCell>
        <mxCell id="DMoWGZLRylLb-BpsMf23-32" value="Map khởi đầu" style="strokeWidth=2;html=1;shape=mxgraph.flowchart.decision;whiteSpace=wrap;" parent="1" vertex="1">
          <mxGeometry x="810" y="780" width="100" height="100" as="geometry" />
        </mxCell>
        <mxCell id="DMoWGZLRylLb-BpsMf23-33" style="edgeStyle=orthogonalEdgeStyle;rounded=0;orthogonalLoop=1;jettySize=auto;html=1;" parent="1" source="DMoWGZLRylLb-BpsMf23-34" target="DMoWGZLRylLb-BpsMf23-87" edge="1">
          <mxGeometry relative="1" as="geometry" />
        </mxCell>
        <mxCell id="DMoWGZLRylLb-BpsMf23-34" value="Shop" style="strokeWidth=2;html=1;shape=mxgraph.flowchart.decision;whiteSpace=wrap;" parent="1" vertex="1">
          <mxGeometry x="810" y="920" width="100" height="100" as="geometry" />
        </mxCell>
        <mxCell id="DMoWGZLRylLb-BpsMf23-35" style="edgeStyle=orthogonalEdgeStyle;rounded=0;orthogonalLoop=1;jettySize=auto;html=1;" parent="1" source="DMoWGZLRylLb-BpsMf23-36" target="DMoWGZLRylLb-BpsMf23-88" edge="1">
          <mxGeometry relative="1" as="geometry" />
        </mxCell>
        <mxCell id="DMoWGZLRylLb-BpsMf23-36" value="Di chuyển" style="strokeWidth=2;html=1;shape=mxgraph.flowchart.decision;whiteSpace=wrap;" parent="1" vertex="1">
          <mxGeometry x="810" y="1060" width="100" height="100" as="geometry" />
        </mxCell>
        <mxCell id="DMoWGZLRylLb-BpsMf23-37" style="edgeStyle=orthogonalEdgeStyle;rounded=0;orthogonalLoop=1;jettySize=auto;html=1;" parent="1" source="DMoWGZLRylLb-BpsMf23-38" target="DMoWGZLRylLb-BpsMf23-92" edge="1">
          <mxGeometry relative="1" as="geometry" />
        </mxCell>
        <mxCell id="DMoWGZLRylLb-BpsMf23-38" value="Huấn luyện" style="strokeWidth=2;html=1;shape=mxgraph.flowchart.decision;whiteSpace=wrap;" parent="1" vertex="1">
          <mxGeometry x="810" y="1280" width="100" height="100" as="geometry" />
        </mxCell>
        <mxCell id="DMoWGZLRylLb-BpsMf23-39" style="edgeStyle=orthogonalEdgeStyle;rounded=0;orthogonalLoop=1;jettySize=auto;html=1;" parent="1" source="DMoWGZLRylLb-BpsMf23-40" target="DMoWGZLRylLb-BpsMf23-89" edge="1">
          <mxGeometry relative="1" as="geometry" />
        </mxCell>
        <mxCell id="DMoWGZLRylLb-BpsMf23-40" value="Nghỉ ngơi" style="strokeWidth=2;html=1;shape=mxgraph.flowchart.decision;whiteSpace=wrap;" parent="1" vertex="1">
          <mxGeometry x="810" y="1410" width="100" height="100" as="geometry" />
        </mxCell>
        <mxCell id="DMoWGZLRylLb-BpsMf23-41" style="edgeStyle=orthogonalEdgeStyle;rounded=0;orthogonalLoop=1;jettySize=auto;html=1;" parent="1" source="DMoWGZLRylLb-BpsMf23-43" target="DMoWGZLRylLb-BpsMf23-78" edge="1">
          <mxGeometry relative="1" as="geometry" />
        </mxCell>
        <mxCell id="DMoWGZLRylLb-BpsMf23-42" style="edgeStyle=orthogonalEdgeStyle;rounded=0;orthogonalLoop=1;jettySize=auto;html=1;" parent="1" source="DMoWGZLRylLb-BpsMf23-43" target="DMoWGZLRylLb-BpsMf23-46" edge="1">
          <mxGeometry relative="1" as="geometry" />
        </mxCell>
        <mxCell id="DMoWGZLRylLb-BpsMf23-43" value="Khám phá" style="strokeWidth=2;html=1;shape=mxgraph.flowchart.decision;whiteSpace=wrap;" parent="1" vertex="1">
          <mxGeometry x="1100" y="780" width="100" height="100" as="geometry" />
        </mxCell>
        <mxCell id="DMoWGZLRylLb-BpsMf23-44" style="edgeStyle=orthogonalEdgeStyle;rounded=0;orthogonalLoop=1;jettySize=auto;html=1;" parent="1" source="DMoWGZLRylLb-BpsMf23-46" target="DMoWGZLRylLb-BpsMf23-48" edge="1">
          <mxGeometry relative="1" as="geometry" />
        </mxCell>
        <mxCell id="DMoWGZLRylLb-BpsMf23-45" style="edgeStyle=orthogonalEdgeStyle;rounded=0;orthogonalLoop=1;jettySize=auto;html=1;" parent="1" source="DMoWGZLRylLb-BpsMf23-46" target="DMoWGZLRylLb-BpsMf23-79" edge="1">
          <mxGeometry relative="1" as="geometry" />
        </mxCell>
        <mxCell id="DMoWGZLRylLb-BpsMf23-46" value="Di chuyển" style="strokeWidth=2;html=1;shape=mxgraph.flowchart.decision;whiteSpace=wrap;" parent="1" vertex="1">
          <mxGeometry x="1100" y="920" width="100" height="100" as="geometry" />
        </mxCell>
        <mxCell id="DMoWGZLRylLb-BpsMf23-47" style="edgeStyle=orthogonalEdgeStyle;rounded=0;orthogonalLoop=1;jettySize=auto;html=1;" parent="1" source="DMoWGZLRylLb-BpsMf23-48" target="DMoWGZLRylLb-BpsMf23-86" edge="1">
          <mxGeometry relative="1" as="geometry" />
        </mxCell>
        <mxCell id="DMoWGZLRylLb-BpsMf23-48" value="Biến về" style="strokeWidth=2;html=1;shape=mxgraph.flowchart.decision;whiteSpace=wrap;" parent="1" vertex="1">
          <mxGeometry x="1100" y="1060" width="100" height="100" as="geometry" />
        </mxCell>
        <mxCell id="DMoWGZLRylLb-BpsMf23-49" style="edgeStyle=orthogonalEdgeStyle;rounded=0;orthogonalLoop=1;jettySize=auto;html=1;" parent="1" source="DMoWGZLRylLb-BpsMf23-51" target="DMoWGZLRylLb-BpsMf23-56" edge="1">
          <mxGeometry relative="1" as="geometry" />
        </mxCell>
        <mxCell id="DMoWGZLRylLb-BpsMf23-50" style="edgeStyle=orthogonalEdgeStyle;rounded=0;orthogonalLoop=1;jettySize=auto;html=1;" parent="1" source="DMoWGZLRylLb-BpsMf23-51" target="DMoWGZLRylLb-BpsMf23-60" edge="1">
          <mxGeometry relative="1" as="geometry" />
        </mxCell>
        <mxCell id="DMoWGZLRylLb-BpsMf23-51" value="Sự kiện combat" style="strokeWidth=2;html=1;shape=mxgraph.flowchart.decision;whiteSpace=wrap;" parent="1" vertex="1">
          <mxGeometry x="1135" y="155" width="100" height="100" as="geometry" />
        </mxCell>
        <mxCell id="DMoWGZLRylLb-BpsMf23-52" style="edgeStyle=orthogonalEdgeStyle;rounded=0;orthogonalLoop=1;jettySize=auto;html=1;" parent="1" source="DMoWGZLRylLb-BpsMf23-53" target="DMoWGZLRylLb-BpsMf23-51" edge="1">
          <mxGeometry relative="1" as="geometry" />
        </mxCell>
        <mxCell id="DMoWGZLRylLb-BpsMf23-53" value="Chọn tỉ lệ ra các sự kiện" style="rounded=1;whiteSpace=wrap;html=1;absoluteArcSize=1;arcSize=14;strokeWidth=2;" parent="1" vertex="1">
          <mxGeometry x="1140" y="20" width="90" height="90" as="geometry" />
        </mxCell>
        <mxCell id="DMoWGZLRylLb-BpsMf23-54" style="edgeStyle=orthogonalEdgeStyle;rounded=0;orthogonalLoop=1;jettySize=auto;html=1;" parent="1" source="DMoWGZLRylLb-BpsMf23-56" target="DMoWGZLRylLb-BpsMf23-58" edge="1">
          <mxGeometry relative="1" as="geometry" />
        </mxCell>
        <mxCell id="DMoWGZLRylLb-BpsMf23-55" style="edgeStyle=orthogonalEdgeStyle;rounded=0;orthogonalLoop=1;jettySize=auto;html=1;" parent="1" source="DMoWGZLRylLb-BpsMf23-56" target="DMoWGZLRylLb-BpsMf23-75" edge="1">
          <mxGeometry relative="1" as="geometry" />
        </mxCell>
        <mxCell id="DMoWGZLRylLb-BpsMf23-56" value="Sự kiện trao đổi" style="strokeWidth=2;html=1;shape=mxgraph.flowchart.decision;whiteSpace=wrap;" parent="1" vertex="1">
          <mxGeometry x="1135" y="295" width="100" height="100" as="geometry" />
        </mxCell>
        <mxCell id="DMoWGZLRylLb-BpsMf23-57" style="edgeStyle=orthogonalEdgeStyle;rounded=0;orthogonalLoop=1;jettySize=auto;html=1;" parent="1" source="DMoWGZLRylLb-BpsMf23-58" target="DMoWGZLRylLb-BpsMf23-77" edge="1">
          <mxGeometry relative="1" as="geometry" />
        </mxCell>
        <mxCell id="DMoWGZLRylLb-BpsMf23-58" value="Sự kiện cộng chỉ số" style="strokeWidth=2;html=1;shape=mxgraph.flowchart.decision;whiteSpace=wrap;" parent="1" vertex="1">
          <mxGeometry x="1135" y="435" width="100" height="100" as="geometry" />
        </mxCell>
        <mxCell id="DMoWGZLRylLb-BpsMf23-59" style="edgeStyle=orthogonalEdgeStyle;rounded=0;orthogonalLoop=1;jettySize=auto;html=1;" parent="1" source="DMoWGZLRylLb-BpsMf23-60" target="DMoWGZLRylLb-BpsMf23-63" edge="1">
          <mxGeometry relative="1" as="geometry" />
        </mxCell>
        <mxCell id="DMoWGZLRylLb-BpsMf23-60" value="Luồng combat" style="rounded=1;whiteSpace=wrap;html=1;absoluteArcSize=1;arcSize=14;strokeWidth=2;" parent="1" vertex="1">
          <mxGeometry x="1290" y="160" width="90" height="90" as="geometry" />
        </mxCell>
        <mxCell id="DMoWGZLRylLb-BpsMf23-61" style="edgeStyle=orthogonalEdgeStyle;rounded=0;orthogonalLoop=1;jettySize=auto;html=1;" parent="1" source="DMoWGZLRylLb-BpsMf23-63" target="DMoWGZLRylLb-BpsMf23-65" edge="1">
          <mxGeometry relative="1" as="geometry" />
        </mxCell>
        <mxCell id="DMoWGZLRylLb-BpsMf23-62" style="edgeStyle=orthogonalEdgeStyle;rounded=0;orthogonalLoop=1;jettySize=auto;html=1;" parent="1" source="DMoWGZLRylLb-BpsMf23-63" target="DMoWGZLRylLb-BpsMf23-81" edge="1">
          <mxGeometry relative="1" as="geometry" />
        </mxCell>
        <mxCell id="DMoWGZLRylLb-BpsMf23-63" value="Thắng/ Không ngủm" style="strokeWidth=2;html=1;shape=mxgraph.flowchart.decision;whiteSpace=wrap;" parent="1" vertex="1">
          <mxGeometry x="1440" y="150" width="100" height="100" as="geometry" />
        </mxCell>
        <mxCell id="DMoWGZLRylLb-BpsMf23-64" style="edgeStyle=orthogonalEdgeStyle;rounded=0;orthogonalLoop=1;jettySize=auto;html=1;" parent="1" source="DMoWGZLRylLb-BpsMf23-65" target="DMoWGZLRylLb-BpsMf23-53" edge="1">
          <mxGeometry relative="1" as="geometry">
            <mxPoint x="1230" y="60" as="targetPoint" />
            <Array as="points">
              <mxPoint x="1770" y="205" />
              <mxPoint x="1770" y="70" />
            </Array>
          </mxGeometry>
        </mxCell>
        <mxCell id="DMoWGZLRylLb-BpsMf23-65" value="Cộng stat" style="rounded=1;whiteSpace=wrap;html=1;absoluteArcSize=1;arcSize=14;strokeWidth=2;" parent="1" vertex="1">
          <mxGeometry x="1590" y="160" width="90" height="90" as="geometry" />
        </mxCell>
        <mxCell id="DMoWGZLRylLb-BpsMf23-66" value="Config có tùy chọn save game khi combat hoặc không" style="text;html=1;align=center;verticalAlign=middle;whiteSpace=wrap;rounded=0;" parent="1" vertex="1">
          <mxGeometry x="-51.06" y="717" width="140" height="30" as="geometry" />
        </mxCell>
        <mxCell id="DMoWGZLRylLb-BpsMf23-67" style="edgeStyle=orthogonalEdgeStyle;rounded=0;orthogonalLoop=1;jettySize=auto;html=1;entryX=0;entryY=0.5;entryDx=0;entryDy=0;" parent="1" source="DMoWGZLRylLb-BpsMf23-68" target="DMoWGZLRylLb-BpsMf23-102" edge="1">
          <mxGeometry relative="1" as="geometry" />
        </mxCell>
        <mxCell id="DMoWGZLRylLb-BpsMf23-68" value="Menu" style="strokeWidth=2;html=1;shape=mxgraph.flowchart.decision;whiteSpace=wrap;" parent="1" vertex="1">
          <mxGeometry x="810" y="1550" width="100" height="100" as="geometry" />
        </mxCell>
        <mxCell id="DMoWGZLRylLb-BpsMf23-69" style="edgeStyle=orthogonalEdgeStyle;rounded=0;orthogonalLoop=1;jettySize=auto;html=1;" parent="1" source="DMoWGZLRylLb-BpsMf23-70" target="DMoWGZLRylLb-BpsMf23-195" edge="1">
          <mxGeometry relative="1" as="geometry" />
        </mxCell>
        <mxCell id="DMoWGZLRylLb-BpsMf23-70" value="Luồng main menu" style="rounded=1;whiteSpace=wrap;html=1;absoluteArcSize=1;arcSize=14;strokeWidth=2;" parent="1" vertex="1">
          <mxGeometry x="630" y="562" width="110" height="70" as="geometry" />
        </mxCell>
        <mxCell id="DMoWGZLRylLb-BpsMf23-71" value="Game đang chạy" style="strokeWidth=2;html=1;shape=mxgraph.flowchart.decision;whiteSpace=wrap;" parent="1" vertex="1">
          <mxGeometry x="-53.900000000000006" y="420" width="90.34" height="80" as="geometry" />
        </mxCell>
        <mxCell id="DMoWGZLRylLb-BpsMf23-72" value="Save game" style="strokeWidth=2;html=1;shape=mxgraph.flowchart.decision;whiteSpace=wrap;" parent="1" vertex="1">
          <mxGeometry x="-220" y="510" width="80" height="80" as="geometry" />
        </mxCell>
        <mxCell id="DMoWGZLRylLb-BpsMf23-73" value="Xem chỉ số" style="strokeWidth=2;html=1;shape=mxgraph.flowchart.decision;whiteSpace=wrap;" parent="1" vertex="1">
          <mxGeometry x="-220" y="610" width="80" height="80" as="geometry" />
        </mxCell>
        <mxCell id="DMoWGZLRylLb-BpsMf23-74" style="edgeStyle=orthogonalEdgeStyle;rounded=0;orthogonalLoop=1;jettySize=auto;html=1;" parent="1" source="DMoWGZLRylLb-BpsMf23-75" target="DMoWGZLRylLb-BpsMf23-53" edge="1">
          <mxGeometry relative="1" as="geometry">
            <Array as="points">
              <mxPoint x="1335" y="400" />
              <mxPoint x="1770" y="400" />
              <mxPoint x="1770" y="65" />
            </Array>
          </mxGeometry>
        </mxCell>
        <mxCell id="DMoWGZLRylLb-BpsMf23-75" value="Luồng shop" style="rounded=1;whiteSpace=wrap;html=1;absoluteArcSize=1;arcSize=14;strokeWidth=2;" parent="1" vertex="1">
          <mxGeometry x="1290" y="295" width="90" height="90" as="geometry" />
        </mxCell>
        <mxCell id="DMoWGZLRylLb-BpsMf23-76" style="edgeStyle=orthogonalEdgeStyle;rounded=0;orthogonalLoop=1;jettySize=auto;html=1;" parent="1" source="DMoWGZLRylLb-BpsMf23-77" target="DMoWGZLRylLb-BpsMf23-84" edge="1">
          <mxGeometry relative="1" as="geometry" />
        </mxCell>
        <mxCell id="DMoWGZLRylLb-BpsMf23-77" value="Luồng side event" style="rounded=1;whiteSpace=wrap;html=1;absoluteArcSize=1;arcSize=14;strokeWidth=2;" parent="1" vertex="1">
          <mxGeometry x="1290" y="445" width="90" height="80" as="geometry" />
        </mxCell>
        <mxCell id="DMoWGZLRylLb-BpsMf23-78" value="Luông khám phá" style="rounded=1;whiteSpace=wrap;html=1;absoluteArcSize=1;arcSize=14;strokeWidth=2;" parent="1" vertex="1">
          <mxGeometry x="1270" y="780" width="100" height="100" as="geometry" />
        </mxCell>
        <mxCell id="DMoWGZLRylLb-BpsMf23-79" value="Luồng di chuyển" style="rounded=1;whiteSpace=wrap;html=1;absoluteArcSize=1;arcSize=14;strokeWidth=2;" parent="1" vertex="1">
          <mxGeometry x="1270" y="922" width="100" height="100" as="geometry" />
        </mxCell>
        <mxCell id="DMoWGZLRylLb-BpsMf23-80" value="Luồng load game" style="rounded=1;whiteSpace=wrap;html=1;absoluteArcSize=1;arcSize=14;strokeWidth=2;" parent="1" vertex="1">
          <mxGeometry x="98.94" y="642" width="91.06" height="73" as="geometry" />
        </mxCell>
        <mxCell id="DMoWGZLRylLb-BpsMf23-81" value="Luồng load game" style="rounded=1;whiteSpace=wrap;html=1;absoluteArcSize=1;arcSize=14;strokeWidth=2;" parent="1" vertex="1">
          <mxGeometry x="1480" y="290" width="91.06" height="73" as="geometry" />
        </mxCell>
        <mxCell id="DMoWGZLRylLb-BpsMf23-82" style="edgeStyle=orthogonalEdgeStyle;rounded=0;orthogonalLoop=1;jettySize=auto;html=1;" parent="1" source="DMoWGZLRylLb-BpsMf23-84" target="DMoWGZLRylLb-BpsMf23-85" edge="1">
          <mxGeometry relative="1" as="geometry" />
        </mxCell>
        <mxCell id="DMoWGZLRylLb-BpsMf23-83" style="edgeStyle=orthogonalEdgeStyle;rounded=0;orthogonalLoop=1;jettySize=auto;html=1;entryX=1;entryY=0.5;entryDx=0;entryDy=0;" parent="1" source="DMoWGZLRylLb-BpsMf23-84" target="DMoWGZLRylLb-BpsMf23-53" edge="1">
          <mxGeometry relative="1" as="geometry">
            <Array as="points">
              <mxPoint x="1490" y="580" />
              <mxPoint x="1770" y="580" />
              <mxPoint x="1770" y="65" />
            </Array>
          </mxGeometry>
        </mxCell>
        <mxCell id="DMoWGZLRylLb-BpsMf23-84" value="Thành công" style="strokeWidth=2;html=1;shape=mxgraph.flowchart.decision;whiteSpace=wrap;" parent="1" vertex="1">
          <mxGeometry x="1440" y="435" width="100" height="100" as="geometry" />
        </mxCell>
        <mxCell id="DMoWGZLRylLb-BpsMf23-85" value="Cộng stat" style="rounded=1;whiteSpace=wrap;html=1;absoluteArcSize=1;arcSize=14;strokeWidth=2;" parent="1" vertex="1">
          <mxGeometry x="1590" y="440" width="90" height="90" as="geometry" />
        </mxCell>
        <mxCell id="DMoWGZLRylLb-BpsMf23-86" value="+1 buổi + luồng di chuyển" style="rounded=1;whiteSpace=wrap;html=1;absoluteArcSize=1;arcSize=14;strokeWidth=2;" parent="1" vertex="1">
          <mxGeometry x="1270" y="1060" width="100" height="100" as="geometry" />
        </mxCell>
        <mxCell id="DMoWGZLRylLb-BpsMf23-87" value="Luồng shop" style="rounded=1;whiteSpace=wrap;html=1;absoluteArcSize=1;arcSize=14;strokeWidth=2;" parent="1" vertex="1">
          <mxGeometry x="950" y="925" width="90" height="90" as="geometry" />
        </mxCell>
        <mxCell id="DMoWGZLRylLb-BpsMf23-88" value="Luồng di chuyển" style="rounded=1;whiteSpace=wrap;html=1;absoluteArcSize=1;arcSize=14;strokeWidth=2;" parent="1" vertex="1">
          <mxGeometry x="945" y="1060" width="100" height="100" as="geometry" />
        </mxCell>
        <mxCell id="DMoWGZLRylLb-BpsMf23-89" value="+1 buổi + Hồi đầy hp" style="rounded=1;whiteSpace=wrap;html=1;absoluteArcSize=1;arcSize=14;strokeWidth=2;" parent="1" vertex="1">
          <mxGeometry x="945" y="1410" width="100" height="100" as="geometry" />
        </mxCell>
        <mxCell id="DMoWGZLRylLb-BpsMf23-90" style="edgeStyle=orthogonalEdgeStyle;rounded=0;orthogonalLoop=1;jettySize=auto;html=1;" parent="1" source="DMoWGZLRylLb-BpsMf23-92" target="DMoWGZLRylLb-BpsMf23-95" edge="1">
          <mxGeometry relative="1" as="geometry" />
        </mxCell>
        <mxCell id="DMoWGZLRylLb-BpsMf23-91" style="edgeStyle=orthogonalEdgeStyle;rounded=0;orthogonalLoop=1;jettySize=auto;html=1;" parent="1" source="DMoWGZLRylLb-BpsMf23-92" target="DMoWGZLRylLb-BpsMf23-97" edge="1">
          <mxGeometry relative="1" as="geometry" />
        </mxCell>
        <mxCell id="DMoWGZLRylLb-BpsMf23-92" value="Đánh tập" style="strokeWidth=2;html=1;shape=mxgraph.flowchart.decision;whiteSpace=wrap;" parent="1" vertex="1">
          <mxGeometry x="1100" y="1300" width="100" height="100" as="geometry" />
        </mxCell>
        <mxCell id="DMoWGZLRylLb-BpsMf23-93" style="edgeStyle=orthogonalEdgeStyle;rounded=0;orthogonalLoop=1;jettySize=auto;html=1;" parent="1" source="DMoWGZLRylLb-BpsMf23-95" target="DMoWGZLRylLb-BpsMf23-96" edge="1">
          <mxGeometry relative="1" as="geometry" />
        </mxCell>
        <mxCell id="DMoWGZLRylLb-BpsMf23-94" style="edgeStyle=orthogonalEdgeStyle;rounded=0;orthogonalLoop=1;jettySize=auto;html=1;entryX=0.5;entryY=0;entryDx=0;entryDy=0;" parent="1" source="DMoWGZLRylLb-BpsMf23-95" target="DMoWGZLRylLb-BpsMf23-98" edge="1">
          <mxGeometry relative="1" as="geometry" />
        </mxCell>
        <mxCell id="DMoWGZLRylLb-BpsMf23-95" value="Đổi đội hình" style="strokeWidth=2;html=1;shape=mxgraph.flowchart.decision;whiteSpace=wrap;" parent="1" vertex="1">
          <mxGeometry x="1270" y="1300" width="100" height="100" as="geometry" />
        </mxCell>
        <mxCell id="DMoWGZLRylLb-BpsMf23-96" value="Thoát" style="strokeWidth=2;html=1;shape=mxgraph.flowchart.decision;whiteSpace=wrap;" parent="1" vertex="1">
          <mxGeometry x="1440" y="1300" width="100" height="100" as="geometry" />
        </mxCell>
        <mxCell id="DMoWGZLRylLb-BpsMf23-97" value="Luồng combat" style="rounded=1;whiteSpace=wrap;html=1;absoluteArcSize=1;arcSize=14;strokeWidth=2;" parent="1" vertex="1">
          <mxGeometry x="1105" y="1420" width="90" height="90" as="geometry" />
        </mxCell>
        <mxCell id="DMoWGZLRylLb-BpsMf23-98" value="Luồng tạo nhân vật" style="rounded=1;whiteSpace=wrap;html=1;absoluteArcSize=1;arcSize=14;strokeWidth=2;" parent="1" vertex="1">
          <mxGeometry x="1272.5" y="1420" width="95" height="90" as="geometry" />
        </mxCell>
        <mxCell id="DMoWGZLRylLb-BpsMf23-99" style="edgeStyle=orthogonalEdgeStyle;rounded=0;orthogonalLoop=1;jettySize=auto;html=1;" parent="1" source="DMoWGZLRylLb-BpsMf23-100" target="DMoWGZLRylLb-BpsMf23-101" edge="1">
          <mxGeometry relative="1" as="geometry" />
        </mxCell>
        <mxCell id="DMoWGZLRylLb-BpsMf23-100" value="Menu" style="strokeWidth=2;html=1;shape=mxgraph.flowchart.decision;whiteSpace=wrap;" parent="1" vertex="1">
          <mxGeometry x="1100" y="1180" width="100" height="100" as="geometry" />
        </mxCell>
        <mxCell id="DMoWGZLRylLb-BpsMf23-101" value="Thoat" style="rounded=1;whiteSpace=wrap;html=1;absoluteArcSize=1;arcSize=14;strokeWidth=2;" parent="1" vertex="1">
          <mxGeometry x="1265" y="1195" width="110" height="70" as="geometry" />
        </mxCell>
        <mxCell id="DMoWGZLRylLb-BpsMf23-102" value="Thoat" style="rounded=1;whiteSpace=wrap;html=1;absoluteArcSize=1;arcSize=14;strokeWidth=2;" parent="1" vertex="1">
          <mxGeometry x="940" y="1565" width="110" height="70" as="geometry" />
        </mxCell>
        <mxCell id="DMoWGZLRylLb-BpsMf23-103" value="Có" style="text;html=1;align=center;verticalAlign=middle;whiteSpace=wrap;rounded=0;" parent="1" vertex="1">
          <mxGeometry x="1530" y="160" width="60" height="30" as="geometry" />
        </mxCell>
        <mxCell id="DMoWGZLRylLb-BpsMf23-104" value="" style="edgeStyle=orthogonalEdgeStyle;rounded=0;orthogonalLoop=1;jettySize=auto;html=1;entryX=1;entryY=0.5;entryDx=0;entryDy=0;" parent="1" source="DMoWGZLRylLb-BpsMf23-85" target="DMoWGZLRylLb-BpsMf23-53" edge="1">
          <mxGeometry relative="1" as="geometry">
            <mxPoint x="1230" y="65" as="targetPoint" />
            <mxPoint x="1680" y="485" as="sourcePoint" />
            <Array as="points">
              <mxPoint x="1770" y="485" />
              <mxPoint x="1770" y="65" />
            </Array>
          </mxGeometry>
        </mxCell>
        <mxCell id="DMoWGZLRylLb-BpsMf23-105" value="Lăp số lần theo config (md: 3 lần)" style="text;html=1;align=center;verticalAlign=middle;whiteSpace=wrap;rounded=0;" parent="1" vertex="1">
          <mxGeometry x="1390" y="30" width="150" height="30" as="geometry" />
        </mxCell>
        <mxCell id="DMoWGZLRylLb-BpsMf23-106" value="Không" style="text;html=1;align=center;verticalAlign=middle;whiteSpace=wrap;rounded=0;" parent="1" vertex="1">
          <mxGeometry x="1530" y="240" width="60" height="30" as="geometry" />
        </mxCell>
        <mxCell id="DMoWGZLRylLb-BpsMf23-107" value="Không" style="text;html=1;align=center;verticalAlign=middle;whiteSpace=wrap;rounded=0;" parent="1" vertex="1">
          <mxGeometry x="1530" y="540" width="60" height="30" as="geometry" />
        </mxCell>
        <mxCell id="DMoWGZLRylLb-BpsMf23-108" value="Có" style="text;html=1;align=center;verticalAlign=middle;whiteSpace=wrap;rounded=0;" parent="1" vertex="1">
          <mxGeometry x="1530" y="450" width="60" height="30" as="geometry" />
        </mxCell>
        <mxCell id="DMoWGZLRylLb-BpsMf23-109" style="edgeStyle=orthogonalEdgeStyle;rounded=0;orthogonalLoop=1;jettySize=auto;html=1;entryX=0;entryY=0.5;entryDx=0;entryDy=0;entryPerimeter=0;" parent="1" source="DMoWGZLRylLb-BpsMf23-32" target="DMoWGZLRylLb-BpsMf23-43" edge="1">
          <mxGeometry relative="1" as="geometry" />
        </mxCell>
        <mxCell id="DMoWGZLRylLb-BpsMf23-110" style="edgeStyle=orthogonalEdgeStyle;rounded=0;orthogonalLoop=1;jettySize=auto;html=1;entryX=0.5;entryY=0;entryDx=0;entryDy=0;entryPerimeter=0;" parent="1" source="DMoWGZLRylLb-BpsMf23-48" target="DMoWGZLRylLb-BpsMf23-100" edge="1">
          <mxGeometry relative="1" as="geometry" />
        </mxCell>
        <mxCell id="DMoWGZLRylLb-BpsMf23-111" style="edgeStyle=orthogonalEdgeStyle;rounded=0;orthogonalLoop=1;jettySize=auto;html=1;entryX=0.5;entryY=0;entryDx=0;entryDy=0;entryPerimeter=0;" parent="1" source="DMoWGZLRylLb-BpsMf23-34" target="DMoWGZLRylLb-BpsMf23-36" edge="1">
          <mxGeometry relative="1" as="geometry" />
        </mxCell>
        <mxCell id="DMoWGZLRylLb-BpsMf23-112" style="edgeStyle=orthogonalEdgeStyle;rounded=0;orthogonalLoop=1;jettySize=auto;html=1;entryX=0.5;entryY=0;entryDx=0;entryDy=0;entryPerimeter=0;" parent="1" source="DMoWGZLRylLb-BpsMf23-36" target="DMoWGZLRylLb-BpsMf23-38" edge="1">
          <mxGeometry relative="1" as="geometry" />
        </mxCell>
        <mxCell id="DMoWGZLRylLb-BpsMf23-113" style="edgeStyle=orthogonalEdgeStyle;rounded=0;orthogonalLoop=1;jettySize=auto;html=1;entryX=0.5;entryY=0;entryDx=0;entryDy=0;entryPerimeter=0;" parent="1" source="DMoWGZLRylLb-BpsMf23-38" target="DMoWGZLRylLb-BpsMf23-40" edge="1">
          <mxGeometry relative="1" as="geometry" />
        </mxCell>
        <mxCell id="DMoWGZLRylLb-BpsMf23-114" style="edgeStyle=orthogonalEdgeStyle;rounded=0;orthogonalLoop=1;jettySize=auto;html=1;entryX=0.5;entryY=0;entryDx=0;entryDy=0;entryPerimeter=0;" parent="1" source="DMoWGZLRylLb-BpsMf23-40" target="DMoWGZLRylLb-BpsMf23-68" edge="1">
          <mxGeometry relative="1" as="geometry" />
        </mxCell>
        <mxCell id="DMoWGZLRylLb-BpsMf23-115" style="edgeStyle=orthogonalEdgeStyle;rounded=0;orthogonalLoop=1;jettySize=auto;html=1;entryX=1;entryY=0.5;entryDx=0;entryDy=0;entryPerimeter=0;" parent="1" source="DMoWGZLRylLb-BpsMf23-14" target="DMoWGZLRylLb-BpsMf23-71" edge="1">
          <mxGeometry relative="1" as="geometry" />
        </mxCell>
        <mxCell id="DMoWGZLRylLb-BpsMf23-116" style="edgeStyle=orthogonalEdgeStyle;rounded=0;orthogonalLoop=1;jettySize=auto;html=1;entryX=0.5;entryY=0;entryDx=0;entryDy=0;entryPerimeter=0;" parent="1" source="DMoWGZLRylLb-BpsMf23-71" target="DMoWGZLRylLb-BpsMf23-197" edge="1">
          <mxGeometry relative="1" as="geometry" />
        </mxCell>
        <mxCell id="DMoWGZLRylLb-BpsMf23-117" style="edgeStyle=orthogonalEdgeStyle;rounded=0;orthogonalLoop=1;jettySize=auto;html=1;entryX=0.5;entryY=0;entryDx=0;entryDy=0;entryPerimeter=0;" parent="1" source="DMoWGZLRylLb-BpsMf23-72" target="DMoWGZLRylLb-BpsMf23-73" edge="1">
          <mxGeometry relative="1" as="geometry" />
        </mxCell>
        <mxCell id="DMoWGZLRylLb-BpsMf23-118" style="edgeStyle=orthogonalEdgeStyle;rounded=0;orthogonalLoop=1;jettySize=auto;html=1;entryX=0.5;entryY=0;entryDx=0;entryDy=0;entryPerimeter=0;" parent="1" source="DMoWGZLRylLb-BpsMf23-73" target="DMoWGZLRylLb-BpsMf23-17" edge="1">
          <mxGeometry relative="1" as="geometry" />
        </mxCell>
        <mxCell id="DMoWGZLRylLb-BpsMf23-119" style="edgeStyle=orthogonalEdgeStyle;rounded=0;orthogonalLoop=1;jettySize=auto;html=1;entryX=0.5;entryY=0;entryDx=0;entryDy=0;entryPerimeter=0;" parent="1" source="DMoWGZLRylLb-BpsMf23-72" target="DMoWGZLRylLb-BpsMf23-17" edge="1">
          <mxGeometry relative="1" as="geometry" />
        </mxCell>
        <mxCell id="DMoWGZLRylLb-BpsMf23-120" style="edgeStyle=orthogonalEdgeStyle;rounded=0;orthogonalLoop=1;jettySize=auto;html=1;entryX=0;entryY=0.5;entryDx=0;entryDy=0;entryPerimeter=0;" parent="1" source="DMoWGZLRylLb-BpsMf23-80" target="DMoWGZLRylLb-BpsMf23-24" edge="1">
          <mxGeometry relative="1" as="geometry" />
        </mxCell>
        <mxCell id="DMoWGZLRylLb-BpsMf23-121" style="edgeStyle=orthogonalEdgeStyle;rounded=0;orthogonalLoop=1;jettySize=auto;html=1;entryX=0.5;entryY=0;entryDx=0;entryDy=0;entryPerimeter=0;" parent="1" source="DMoWGZLRylLb-BpsMf23-19" target="DMoWGZLRylLb-BpsMf23-21" edge="1">
          <mxGeometry relative="1" as="geometry" />
        </mxCell>
        <mxCell id="DMoWGZLRylLb-BpsMf23-122" value="Luồng khám phá" style="text;html=1;align=center;verticalAlign=middle;whiteSpace=wrap;rounded=0;" parent="1" vertex="1">
          <mxGeometry x="1045" y="60" width="60" height="30" as="geometry" />
        </mxCell>
        <mxCell id="DMoWGZLRylLb-BpsMf23-123" value="Luồng chọn các hành động trong map" style="text;html=1;align=center;verticalAlign=middle;whiteSpace=wrap;rounded=0;" parent="1" vertex="1">
          <mxGeometry x="905" y="790" width="85" height="30" as="geometry" />
        </mxCell>
        <mxCell id="DMoWGZLRylLb-BpsMf23-124" value="Luồng main" style="text;html=1;align=center;verticalAlign=middle;whiteSpace=wrap;rounded=0;" parent="1" vertex="1">
          <mxGeometry x="560" y="530" width="60" height="30" as="geometry" />
        </mxCell>
        <mxCell id="DMoWGZLRylLb-BpsMf23-125" value="Luồng file io" style="text;html=1;align=center;verticalAlign=middle;whiteSpace=wrap;rounded=0;" parent="1" vertex="1">
          <mxGeometry x="-820" y="30" width="60" height="30" as="geometry" />
        </mxCell>
        <mxCell id="DMoWGZLRylLb-BpsMf23-126" value="Lưu game" style="rounded=1;whiteSpace=wrap;html=1;absoluteArcSize=1;arcSize=14;strokeWidth=2;" parent="1" vertex="1">
          <mxGeometry x="-750" y="50" width="90" height="70" as="geometry" />
        </mxCell>
        <mxCell id="DMoWGZLRylLb-BpsMf23-127" value="Load game" style="rounded=1;whiteSpace=wrap;html=1;absoluteArcSize=1;arcSize=14;strokeWidth=2;" parent="1" vertex="1">
          <mxGeometry x="-755" y="180" width="95" height="70" as="geometry" />
        </mxCell>
        <mxCell id="DMoWGZLRylLb-BpsMf23-128" style="edgeStyle=orthogonalEdgeStyle;rounded=0;orthogonalLoop=1;jettySize=auto;html=1;entryX=0.5;entryY=0;entryDx=0;entryDy=0;entryPerimeter=0;" parent="1" source="DMoWGZLRylLb-BpsMf23-71" target="DMoWGZLRylLb-BpsMf23-17" edge="1">
          <mxGeometry relative="1" as="geometry" />
        </mxCell>
        <mxCell id="DMoWGZLRylLb-BpsMf23-129" style="edgeStyle=orthogonalEdgeStyle;rounded=0;orthogonalLoop=1;jettySize=auto;html=1;" parent="1" source="DMoWGZLRylLb-BpsMf23-130" target="DMoWGZLRylLb-BpsMf23-132" edge="1">
          <mxGeometry relative="1" as="geometry" />
        </mxCell>
        <mxCell id="DMoWGZLRylLb-BpsMf23-130" value="Luồng combat" style="rounded=1;whiteSpace=wrap;html=1;absoluteArcSize=1;arcSize=14;strokeWidth=2;" parent="1" vertex="1">
          <mxGeometry x="1540" y="712" width="100" height="70" as="geometry" />
        </mxCell>
        <mxCell id="DMoWGZLRylLb-BpsMf23-131" style="edgeStyle=orthogonalEdgeStyle;rounded=0;orthogonalLoop=1;jettySize=auto;html=1;" parent="1" source="DMoWGZLRylLb-BpsMf23-132" target="DMoWGZLRylLb-BpsMf23-134" edge="1">
          <mxGeometry relative="1" as="geometry" />
        </mxCell>
        <mxCell id="DMoWGZLRylLb-BpsMf23-132" value="Chọn quái vật gặp phải theo map đang ở" style="rounded=1;whiteSpace=wrap;html=1;absoluteArcSize=1;arcSize=14;strokeWidth=2;" parent="1" vertex="1">
          <mxGeometry x="1700" y="712" width="110" height="68" as="geometry" />
        </mxCell>
        <mxCell id="DMoWGZLRylLb-BpsMf23-133" style="edgeStyle=orthogonalEdgeStyle;rounded=0;orthogonalLoop=1;jettySize=auto;html=1;" parent="1" source="DMoWGZLRylLb-BpsMf23-134" target="DMoWGZLRylLb-BpsMf23-136" edge="1">
          <mxGeometry relative="1" as="geometry" />
        </mxCell>
        <mxCell id="DMoWGZLRylLb-BpsMf23-134" value="Chọn level của quái theo công thức: LV nhân vật cao nhất + random(-1, 1) * hệ số độ khó" style="rounded=1;whiteSpace=wrap;html=1;absoluteArcSize=1;arcSize=14;strokeWidth=2;" parent="1" vertex="1">
          <mxGeometry x="1870" y="708.5" width="130" height="75" as="geometry" />
        </mxCell>
        <mxCell id="DMoWGZLRylLb-BpsMf23-135" style="edgeStyle=orthogonalEdgeStyle;rounded=0;orthogonalLoop=1;jettySize=auto;html=1;" parent="1" source="DMoWGZLRylLb-BpsMf23-136" target="DMoWGZLRylLb-BpsMf23-139" edge="1">
          <mxGeometry relative="1" as="geometry" />
        </mxCell>
        <mxCell id="DMoWGZLRylLb-BpsMf23-136" value="In ra thông tin hai bên" style="rounded=1;whiteSpace=wrap;html=1;absoluteArcSize=1;arcSize=14;strokeWidth=2;" parent="1" vertex="1">
          <mxGeometry x="2050" y="712" width="100" height="87.5" as="geometry" />
        </mxCell>
        <mxCell id="DMoWGZLRylLb-BpsMf23-137" style="edgeStyle=orthogonalEdgeStyle;rounded=0;orthogonalLoop=1;jettySize=auto;html=1;" parent="1" source="DMoWGZLRylLb-BpsMf23-139" target="DMoWGZLRylLb-BpsMf23-142" edge="1">
          <mxGeometry relative="1" as="geometry" />
        </mxCell>
        <mxCell id="DMoWGZLRylLb-BpsMf23-138" style="edgeStyle=orthogonalEdgeStyle;rounded=0;orthogonalLoop=1;jettySize=auto;html=1;entryX=0;entryY=0.5;entryDx=0;entryDy=0;" parent="1" source="DMoWGZLRylLb-BpsMf23-139" target="DMoWGZLRylLb-BpsMf23-152" edge="1">
          <mxGeometry relative="1" as="geometry" />
        </mxCell>
        <mxCell id="DMoWGZLRylLb-BpsMf23-139" value="Tấn công" style="strokeWidth=2;html=1;shape=mxgraph.flowchart.decision;whiteSpace=wrap;" parent="1" vertex="1">
          <mxGeometry x="2050" y="862" width="100" height="100" as="geometry" />
        </mxCell>
        <mxCell id="DMoWGZLRylLb-BpsMf23-140" style="edgeStyle=orthogonalEdgeStyle;rounded=0;orthogonalLoop=1;jettySize=auto;html=1;" parent="1" source="DMoWGZLRylLb-BpsMf23-142" target="DMoWGZLRylLb-BpsMf23-145" edge="1">
          <mxGeometry relative="1" as="geometry" />
        </mxCell>
        <mxCell id="DMoWGZLRylLb-BpsMf23-141" style="edgeStyle=orthogonalEdgeStyle;rounded=0;orthogonalLoop=1;jettySize=auto;html=1;" parent="1" source="DMoWGZLRylLb-BpsMf23-142" edge="1">
          <mxGeometry relative="1" as="geometry">
            <mxPoint x="2240" y="1000" as="targetPoint" />
            <Array as="points">
              <mxPoint x="2200" y="1065" />
              <mxPoint x="2200" y="1000" />
            </Array>
          </mxGeometry>
        </mxCell>
        <mxCell id="DMoWGZLRylLb-BpsMf23-142" value="Skill" style="strokeWidth=2;html=1;shape=mxgraph.flowchart.decision;whiteSpace=wrap;" parent="1" vertex="1">
          <mxGeometry x="2050" y="1015" width="100" height="100" as="geometry" />
        </mxCell>
        <mxCell id="DMoWGZLRylLb-BpsMf23-143" style="edgeStyle=orthogonalEdgeStyle;rounded=0;orthogonalLoop=1;jettySize=auto;html=1;" parent="1" source="DMoWGZLRylLb-BpsMf23-145" target="DMoWGZLRylLb-BpsMf23-147" edge="1">
          <mxGeometry relative="1" as="geometry" />
        </mxCell>
        <mxCell id="DMoWGZLRylLb-BpsMf23-144" style="edgeStyle=orthogonalEdgeStyle;rounded=0;orthogonalLoop=1;jettySize=auto;html=1;" parent="1" source="DMoWGZLRylLb-BpsMf23-145" edge="1">
          <mxGeometry relative="1" as="geometry">
            <mxPoint x="2100" y="860" as="targetPoint" />
            <Array as="points">
              <mxPoint x="1970" y="1215" />
              <mxPoint x="1970" y="860" />
            </Array>
          </mxGeometry>
        </mxCell>
        <mxCell id="DMoWGZLRylLb-BpsMf23-145" value="Items" style="strokeWidth=2;html=1;shape=mxgraph.flowchart.decision;whiteSpace=wrap;" parent="1" vertex="1">
          <mxGeometry x="2050" y="1165" width="100" height="100" as="geometry" />
        </mxCell>
        <mxCell id="DMoWGZLRylLb-BpsMf23-146" style="edgeStyle=orthogonalEdgeStyle;rounded=0;orthogonalLoop=1;jettySize=auto;html=1;" parent="1" source="DMoWGZLRylLb-BpsMf23-147" target="DMoWGZLRylLb-BpsMf23-148" edge="1">
          <mxGeometry relative="1" as="geometry" />
        </mxCell>
        <mxCell id="DMoWGZLRylLb-BpsMf23-147" value="Run away" style="strokeWidth=2;html=1;shape=mxgraph.flowchart.decision;whiteSpace=wrap;" parent="1" vertex="1">
          <mxGeometry x="2050" y="1300" width="100" height="100" as="geometry" />
        </mxCell>
        <mxCell id="DMoWGZLRylLb-BpsMf23-148" value="Tỉ lệ thành công = Random(0-1) + (Tổng HP ta - tổng hp địch) / tổng hp ta &amp;gt; 1&amp;nbsp;" style="rounded=1;whiteSpace=wrap;html=1;absoluteArcSize=1;arcSize=14;strokeWidth=2;" parent="1" vertex="1">
          <mxGeometry x="2210" y="1300" width="100" height="100" as="geometry" />
        </mxCell>
        <mxCell id="DMoWGZLRylLb-BpsMf23-149" value="Thoát combat" style="strokeWidth=2;html=1;shape=mxgraph.flowchart.terminator;whiteSpace=wrap;" parent="1" vertex="1">
          <mxGeometry x="2380" y="1320" width="100" height="60" as="geometry" />
        </mxCell>
        <mxCell id="DMoWGZLRylLb-BpsMf23-150" style="edgeStyle=orthogonalEdgeStyle;rounded=0;orthogonalLoop=1;jettySize=auto;html=1;" parent="1" source="DMoWGZLRylLb-BpsMf23-148" target="DMoWGZLRylLb-BpsMf23-149" edge="1">
          <mxGeometry relative="1" as="geometry">
            <mxPoint x="2370" y="1349" as="targetPoint" />
          </mxGeometry>
        </mxCell>
        <mxCell id="DMoWGZLRylLb-BpsMf23-151" style="edgeStyle=orthogonalEdgeStyle;rounded=0;orthogonalLoop=1;jettySize=auto;html=1;entryX=1;entryY=0.5;entryDx=0;entryDy=0;" parent="1" source="DMoWGZLRylLb-BpsMf23-152" target="DMoWGZLRylLb-BpsMf23-136" edge="1">
          <mxGeometry relative="1" as="geometry">
            <Array as="points">
              <mxPoint x="2290" y="756" />
            </Array>
          </mxGeometry>
        </mxCell>
        <mxCell id="DMoWGZLRylLb-BpsMf23-152" value="Lượt của địch" style="rounded=1;whiteSpace=wrap;html=1;absoluteArcSize=1;arcSize=14;strokeWidth=2;" parent="1" vertex="1">
          <mxGeometry x="2240" y="950" width="100" height="100" as="geometry" />
        </mxCell>
        <mxCell id="DMoWGZLRylLb-BpsMf23-153" style="edgeStyle=orthogonalEdgeStyle;rounded=0;orthogonalLoop=1;jettySize=auto;html=1;" parent="1" source="DMoWGZLRylLb-BpsMf23-154" target="DMoWGZLRylLb-BpsMf23-157" edge="1">
          <mxGeometry relative="1" as="geometry" />
        </mxCell>
        <mxCell id="DMoWGZLRylLb-BpsMf23-154" value="Luồng shop" style="rounded=1;whiteSpace=wrap;html=1;absoluteArcSize=1;arcSize=14;strokeWidth=2;" parent="1" vertex="1">
          <mxGeometry x="-165" y="1040" width="100" height="80" as="geometry" />
        </mxCell>
        <mxCell id="DMoWGZLRylLb-BpsMf23-155" style="edgeStyle=orthogonalEdgeStyle;rounded=0;orthogonalLoop=1;jettySize=auto;html=1;" parent="1" source="DMoWGZLRylLb-BpsMf23-157" target="DMoWGZLRylLb-BpsMf23-160" edge="1">
          <mxGeometry relative="1" as="geometry" />
        </mxCell>
        <mxCell id="DMoWGZLRylLb-BpsMf23-156" style="edgeStyle=orthogonalEdgeStyle;rounded=0;orthogonalLoop=1;jettySize=auto;html=1;" parent="1" source="DMoWGZLRylLb-BpsMf23-157" target="DMoWGZLRylLb-BpsMf23-162" edge="1">
          <mxGeometry relative="1" as="geometry" />
        </mxCell>
        <mxCell id="DMoWGZLRylLb-BpsMf23-157" value="Mua" style="strokeWidth=2;html=1;shape=mxgraph.flowchart.decision;whiteSpace=wrap;" parent="1" vertex="1">
          <mxGeometry x="-165" y="1170" width="100" height="100" as="geometry" />
        </mxCell>
        <mxCell id="DMoWGZLRylLb-BpsMf23-158" style="edgeStyle=orthogonalEdgeStyle;rounded=0;orthogonalLoop=1;jettySize=auto;html=1;" parent="1" source="DMoWGZLRylLb-BpsMf23-160" target="DMoWGZLRylLb-BpsMf23-161" edge="1">
          <mxGeometry relative="1" as="geometry" />
        </mxCell>
        <mxCell id="DMoWGZLRylLb-BpsMf23-159" style="edgeStyle=orthogonalEdgeStyle;rounded=0;orthogonalLoop=1;jettySize=auto;html=1;" parent="1" source="DMoWGZLRylLb-BpsMf23-160" target="DMoWGZLRylLb-BpsMf23-174" edge="1">
          <mxGeometry relative="1" as="geometry" />
        </mxCell>
        <mxCell id="DMoWGZLRylLb-BpsMf23-160" value="Bán" style="strokeWidth=2;html=1;shape=mxgraph.flowchart.decision;whiteSpace=wrap;" parent="1" vertex="1">
          <mxGeometry x="-165" y="1320" width="100" height="100" as="geometry" />
        </mxCell>
        <mxCell id="DMoWGZLRylLb-BpsMf23-161" value="Thoát" style="strokeWidth=2;html=1;shape=mxgraph.flowchart.decision;whiteSpace=wrap;" parent="1" vertex="1">
          <mxGeometry x="-165" y="1470" width="100" height="100" as="geometry" />
        </mxCell>
        <mxCell id="DMoWGZLRylLb-BpsMf23-162" value="Hiển thị danh sách các đồ có trong shop, chia ra làm các mục, có thể paging nếu cần" style="rounded=1;whiteSpace=wrap;html=1;absoluteArcSize=1;arcSize=14;strokeWidth=2;" parent="1" vertex="1">
          <mxGeometry x="-5" y="1170" width="100" height="100" as="geometry" />
        </mxCell>
        <mxCell id="DMoWGZLRylLb-BpsMf23-163" style="edgeStyle=orthogonalEdgeStyle;rounded=0;orthogonalLoop=1;jettySize=auto;html=1;" parent="1" source="DMoWGZLRylLb-BpsMf23-165" target="DMoWGZLRylLb-BpsMf23-166" edge="1">
          <mxGeometry relative="1" as="geometry" />
        </mxCell>
        <mxCell id="DMoWGZLRylLb-BpsMf23-164" style="edgeStyle=orthogonalEdgeStyle;rounded=0;orthogonalLoop=1;jettySize=auto;html=1;" parent="1" source="DMoWGZLRylLb-BpsMf23-165" target="DMoWGZLRylLb-BpsMf23-168" edge="1">
          <mxGeometry relative="1" as="geometry" />
        </mxCell>
        <mxCell id="DMoWGZLRylLb-BpsMf23-165" value="Chọn ..." style="strokeWidth=2;html=1;shape=mxgraph.flowchart.decision;whiteSpace=wrap;" parent="1" vertex="1">
          <mxGeometry x="165" y="1170" width="100" height="100" as="geometry" />
        </mxCell>
        <mxCell id="DMoWGZLRylLb-BpsMf23-166" value="Thoát" style="strokeWidth=2;html=1;shape=mxgraph.flowchart.decision;whiteSpace=wrap;" parent="1" vertex="1">
          <mxGeometry x="165" y="1305" width="100" height="100" as="geometry" />
        </mxCell>
        <mxCell id="DMoWGZLRylLb-BpsMf23-167" style="edgeStyle=orthogonalEdgeStyle;rounded=0;orthogonalLoop=1;jettySize=auto;html=1;" parent="1" source="DMoWGZLRylLb-BpsMf23-168" target="DMoWGZLRylLb-BpsMf23-170" edge="1">
          <mxGeometry relative="1" as="geometry" />
        </mxCell>
        <mxCell id="DMoWGZLRylLb-BpsMf23-168" value="Cho phép chọn nhân vật muốn mua đồ cho" style="rounded=1;whiteSpace=wrap;html=1;absoluteArcSize=1;arcSize=14;strokeWidth=2;" parent="1" vertex="1">
          <mxGeometry x="315" y="1170" width="100" height="100" as="geometry" />
        </mxCell>
        <mxCell id="DMoWGZLRylLb-BpsMf23-169" style="edgeStyle=orthogonalEdgeStyle;rounded=0;orthogonalLoop=1;jettySize=auto;html=1;" parent="1" source="DMoWGZLRylLb-BpsMf23-170" target="DMoWGZLRylLb-BpsMf23-172" edge="1">
          <mxGeometry relative="1" as="geometry" />
        </mxCell>
        <mxCell id="DMoWGZLRylLb-BpsMf23-170" value="Hiển thị chỉ số trước / sau khi trang bị và hiển thị bảng confirm" style="rounded=1;whiteSpace=wrap;html=1;absoluteArcSize=1;arcSize=14;strokeWidth=2;" parent="1" vertex="1">
          <mxGeometry x="470" y="1170" width="100" height="100" as="geometry" />
        </mxCell>
        <mxCell id="DMoWGZLRylLb-BpsMf23-171" style="edgeStyle=orthogonalEdgeStyle;rounded=0;orthogonalLoop=1;jettySize=auto;html=1;" parent="1" source="DMoWGZLRylLb-BpsMf23-172" target="DMoWGZLRylLb-BpsMf23-173" edge="1">
          <mxGeometry relative="1" as="geometry" />
        </mxCell>
        <mxCell id="DMoWGZLRylLb-BpsMf23-172" value="Mua" style="strokeWidth=2;html=1;shape=mxgraph.flowchart.decision;whiteSpace=wrap;" parent="1" vertex="1">
          <mxGeometry x="620" y="1170" width="100" height="100" as="geometry" />
        </mxCell>
        <mxCell id="DMoWGZLRylLb-BpsMf23-173" value="Thoát" style="strokeWidth=2;html=1;shape=mxgraph.flowchart.decision;whiteSpace=wrap;" parent="1" vertex="1">
          <mxGeometry x="620" y="1310" width="100" height="100" as="geometry" />
        </mxCell>
        <mxCell id="DMoWGZLRylLb-BpsMf23-174" value="Hiện danh sách đồ bán được và giá tiền xong xác nhận..." style="rounded=1;whiteSpace=wrap;html=1;absoluteArcSize=1;arcSize=14;strokeWidth=2;" parent="1" vertex="1">
          <mxGeometry y="1320" width="100" height="100" as="geometry" />
        </mxCell>
        <mxCell id="DMoWGZLRylLb-BpsMf23-175" style="edgeStyle=orthogonalEdgeStyle;rounded=0;orthogonalLoop=1;jettySize=auto;html=1;entryX=0;entryY=0.5;entryDx=0;entryDy=0;entryPerimeter=0;" parent="1" source="DMoWGZLRylLb-BpsMf23-162" target="DMoWGZLRylLb-BpsMf23-165" edge="1">
          <mxGeometry relative="1" as="geometry" />
        </mxCell>
        <mxCell id="DMoWGZLRylLb-BpsMf23-176" value="Luồng tạo nhân vật" style="rounded=1;whiteSpace=wrap;html=1;absoluteArcSize=1;arcSize=14;strokeWidth=2;" parent="1" vertex="1">
          <mxGeometry x="-165" y="1655" width="100" height="100" as="geometry" />
        </mxCell>
        <mxCell id="DMoWGZLRylLb-BpsMf23-177" value="Hiển thị các slot, yêu cầu chọn slot" style="rounded=1;whiteSpace=wrap;html=1;absoluteArcSize=1;arcSize=14;strokeWidth=2;" parent="1" vertex="1">
          <mxGeometry x="75" y="1655" width="100" height="100" as="geometry" />
        </mxCell>
        <mxCell id="DMoWGZLRylLb-BpsMf23-178" value="" style="strokeWidth=2;html=1;shape=mxgraph.flowchart.decision;whiteSpace=wrap;" parent="1" vertex="1">
          <mxGeometry x="195" y="1650" width="100" height="100" as="geometry" />
        </mxCell>
        <mxCell id="DMoWGZLRylLb-BpsMf23-179" value="Hiển thị các nhân vật, yêu cầu chọn nhân vật" style="rounded=1;whiteSpace=wrap;html=1;absoluteArcSize=1;arcSize=14;strokeWidth=2;" parent="1" vertex="1">
          <mxGeometry x="335" y="1655" width="100" height="100" as="geometry" />
        </mxCell>
        <mxCell id="DMoWGZLRylLb-BpsMf23-180" value="" style="strokeWidth=2;html=1;shape=mxgraph.flowchart.decision;whiteSpace=wrap;" parent="1" vertex="1">
          <mxGeometry x="485" y="1655" width="100" height="100" as="geometry" />
        </mxCell>
        <mxCell id="DMoWGZLRylLb-BpsMf23-181" value="Hiển thị chỉ số nhân vật, hiện xác nhận" style="rounded=1;whiteSpace=wrap;html=1;absoluteArcSize=1;arcSize=14;strokeWidth=2;" parent="1" vertex="1">
          <mxGeometry x="630" y="1655" width="100" height="100" as="geometry" />
        </mxCell>
        <mxCell id="DMoWGZLRylLb-BpsMf23-182" value="Nhân vật &amp;gt; 0" style="strokeWidth=2;html=1;shape=mxgraph.flowchart.decision;whiteSpace=wrap;" parent="1" vertex="1">
          <mxGeometry x="-45" y="1780" width="100" height="100" as="geometry" />
        </mxCell>
        <mxCell id="DMoWGZLRylLb-BpsMf23-183" value="Bỏ nhân vật" style="strokeWidth=2;html=1;shape=mxgraph.flowchart.decision;whiteSpace=wrap;" parent="1" vertex="1">
          <mxGeometry x="80" y="1780" width="100" height="100" as="geometry" />
        </mxCell>
        <mxCell id="DMoWGZLRylLb-BpsMf23-184" value="Thêm nhân vật" style="strokeWidth=2;html=1;shape=mxgraph.flowchart.decision;whiteSpace=wrap;" parent="1" vertex="1">
          <mxGeometry x="-45" y="1655" width="100" height="100" as="geometry" />
        </mxCell>
        <mxCell id="DMoWGZLRylLb-BpsMf23-185" value="Hiển thị đội hình" style="strokeWidth=2;html=1;shape=mxgraph.flowchart.decision;whiteSpace=wrap;" parent="1" vertex="1">
          <mxGeometry x="-45" y="1985" width="100" height="100" as="geometry" />
        </mxCell>
        <mxCell id="DMoWGZLRylLb-BpsMf23-186" value="Đổi nhân vật" style="strokeWidth=2;html=1;shape=mxgraph.flowchart.decision;whiteSpace=wrap;" parent="1" vertex="1">
          <mxGeometry x="80" y="1900" width="100" height="100" as="geometry" />
        </mxCell>
        <mxCell id="DMoWGZLRylLb-BpsMf23-187" value="Cho phép chọn nhân vật mới rồi so sánh stat" style="rounded=1;whiteSpace=wrap;html=1;absoluteArcSize=1;arcSize=14;strokeWidth=2;" parent="1" vertex="1">
          <mxGeometry x="215" y="1900" width="100" height="100" as="geometry" />
        </mxCell>
        <mxCell id="DMoWGZLRylLb-BpsMf23-188" value="Cho phép chọn một nhân vật để bó" style="rounded=1;whiteSpace=wrap;html=1;absoluteArcSize=1;arcSize=14;strokeWidth=2;" parent="1" vertex="1">
          <mxGeometry x="195" y="1780" width="100" height="100" as="geometry" />
        </mxCell>
        <mxCell id="DMoWGZLRylLb-BpsMf23-189" value="Luồng di chuyển&amp;nbsp;" style="rounded=1;whiteSpace=wrap;html=1;absoluteArcSize=1;arcSize=14;strokeWidth=2;" parent="1" vertex="1">
          <mxGeometry x="1500" y="1510" width="100" height="100" as="geometry" />
        </mxCell>
        <mxCell id="DMoWGZLRylLb-BpsMf23-190" value="Hiển thị các địa điểm xung quanh và cho phép chọn rồi đi đến" style="rounded=1;whiteSpace=wrap;html=1;absoluteArcSize=1;arcSize=14;strokeWidth=2;" parent="1" vertex="1">
          <mxGeometry x="1660" y="1510" width="100" height="100" as="geometry" />
        </mxCell>
        <mxCell id="DMoWGZLRylLb-BpsMf23-191" value="Biến về, bfs về nhà" style="strokeWidth=2;html=1;shape=mxgraph.flowchart.decision;whiteSpace=wrap;" parent="1" vertex="1">
          <mxGeometry x="1660" y="1640" width="100" height="100" as="geometry" />
        </mxCell>
        <mxCell id="DMoWGZLRylLb-BpsMf23-192" value="" style="rounded=1;whiteSpace=wrap;html=1;absoluteArcSize=1;arcSize=14;strokeWidth=2;" parent="1" vertex="1">
          <mxGeometry x="380" y="610" width="100" height="100" as="geometry" />
        </mxCell>
        <mxCell id="DMoWGZLRylLb-BpsMf23-193" value="Luồng game" style="rounded=1;whiteSpace=wrap;html=1;absoluteArcSize=1;arcSize=14;strokeWidth=2;" parent="1" vertex="1">
          <mxGeometry x="380" y="610" width="100" height="100" as="geometry" />
        </mxCell>
        <mxCell id="DMoWGZLRylLb-BpsMf23-194" value="Luồng game" style="rounded=1;whiteSpace=wrap;html=1;absoluteArcSize=1;arcSize=14;strokeWidth=2;" parent="1" vertex="1">
          <mxGeometry x="-450" y="470" width="100" height="100" as="geometry" />
        </mxCell>
        <mxCell id="DMoWGZLRylLb-BpsMf23-195" value="Kết thúc" style="strokeWidth=2;html=1;shape=mxgraph.flowchart.terminator;whiteSpace=wrap;" parent="1" vertex="1">
          <mxGeometry x="780" y="566" width="100" height="60" as="geometry" />
        </mxCell>
        <mxCell id="DMoWGZLRylLb-BpsMf23-196" style="edgeStyle=orthogonalEdgeStyle;rounded=0;orthogonalLoop=1;jettySize=auto;html=1;entryX=1;entryY=0.5;entryDx=0;entryDy=0;" parent="1" source="DMoWGZLRylLb-BpsMf23-197" target="DMoWGZLRylLb-BpsMf23-194" edge="1">
          <mxGeometry relative="1" as="geometry" />
        </mxCell>
        <mxCell id="DMoWGZLRylLb-BpsMf23-197" value="Continue" style="strokeWidth=2;html=1;shape=mxgraph.flowchart.decision;whiteSpace=wrap;" parent="1" vertex="1">
          <mxGeometry x="-300" y="395" width="80" height="80" as="geometry" />
        </mxCell>
        <mxCell id="DMoWGZLRylLb-BpsMf23-198" style="edgeStyle=orthogonalEdgeStyle;rounded=0;orthogonalLoop=1;jettySize=auto;html=1;entryX=0.5;entryY=0;entryDx=0;entryDy=0;entryPerimeter=0;" parent="1" source="DMoWGZLRylLb-BpsMf23-197" target="DMoWGZLRylLb-BpsMf23-72" edge="1">
          <mxGeometry relative="1" as="geometry" />
        </mxCell>
        <mxCell id="DMoWGZLRylLb-BpsMf23-199" value="Khong" style="text;html=1;align=center;verticalAlign=middle;resizable=0;points=[];autosize=1;strokeColor=none;fillColor=none;" parent="1" vertex="1">
          <mxGeometry x="990" y="808" width="60" height="30" as="geometry" />
        </mxCell>
        <mxCell id="JvTsSQbq0CaTdlD66tWc-5" style="edgeStyle=orthogonalEdgeStyle;rounded=0;orthogonalLoop=1;jettySize=auto;html=1;exitX=1;exitY=0.5;exitDx=0;exitDy=0;entryX=0;entryY=0.5;entryDx=0;entryDy=0;" edge="1" parent="1" source="JvTsSQbq0CaTdlD66tWc-3" target="JvTsSQbq0CaTdlD66tWc-4">
          <mxGeometry relative="1" as="geometry" />
        </mxCell>
        <mxCell id="JvTsSQbq0CaTdlD66tWc-86" style="edgeStyle=orthogonalEdgeStyle;rounded=0;orthogonalLoop=1;jettySize=auto;html=1;exitX=0.5;exitY=1;exitDx=0;exitDy=0;entryX=0.5;entryY=0;entryDx=0;entryDy=0;" edge="1" parent="1" source="JvTsSQbq0CaTdlD66tWc-3" target="JvTsSQbq0CaTdlD66tWc-85">
          <mxGeometry relative="1" as="geometry" />
        </mxCell>
        <mxCell id="JvTsSQbq0CaTdlD66tWc-3" value="Luồng combat" style="rounded=1;whiteSpace=wrap;html=1;absoluteArcSize=1;arcSize=14;strokeWidth=2;" vertex="1" parent="1">
          <mxGeometry x="1870" y="1510" width="100" height="100" as="geometry" />
        </mxCell>
        <mxCell id="JvTsSQbq0CaTdlD66tWc-7" style="edgeStyle=orthogonalEdgeStyle;rounded=0;orthogonalLoop=1;jettySize=auto;html=1;exitX=1;exitY=0.5;exitDx=0;exitDy=0;entryX=0;entryY=0.5;entryDx=0;entryDy=0;" edge="1" parent="1" source="JvTsSQbq0CaTdlD66tWc-4" target="JvTsSQbq0CaTdlD66tWc-6">
          <mxGeometry relative="1" as="geometry" />
        </mxCell>
        <mxCell id="JvTsSQbq0CaTdlD66tWc-4" value="Hiển thị quái encounter" style="rounded=1;whiteSpace=wrap;html=1;absoluteArcSize=1;arcSize=14;strokeWidth=2;" vertex="1" parent="1">
          <mxGeometry x="2050" y="1510" width="100" height="100" as="geometry" />
        </mxCell>
        <mxCell id="JvTsSQbq0CaTdlD66tWc-9" style="edgeStyle=orthogonalEdgeStyle;rounded=0;orthogonalLoop=1;jettySize=auto;html=1;exitX=1;exitY=0.5;exitDx=0;exitDy=0;" edge="1" parent="1" source="JvTsSQbq0CaTdlD66tWc-6" target="JvTsSQbq0CaTdlD66tWc-8">
          <mxGeometry relative="1" as="geometry" />
        </mxCell>
        <mxCell id="JvTsSQbq0CaTdlD66tWc-6" value="Quái được hiển thị ra sẽ ánh xạ theo level cao nhất của member bên ally random 1, -1" style="rounded=1;whiteSpace=wrap;html=1;absoluteArcSize=1;arcSize=14;strokeWidth=2;" vertex="1" parent="1">
          <mxGeometry x="2200" y="1510" width="100" height="100" as="geometry" />
        </mxCell>
        <mxCell id="JvTsSQbq0CaTdlD66tWc-8" value="Hiển thị team, Stats (HP, Damage, Crit, v.v), Items (heal, buff, escape), Action (Skill / Attack)" style="rounded=1;whiteSpace=wrap;html=1;absoluteArcSize=1;arcSize=14;strokeWidth=2;" vertex="1" parent="1">
          <mxGeometry x="2400" y="1510" width="100" height="100" as="geometry" />
        </mxCell>
        <mxCell id="JvTsSQbq0CaTdlD66tWc-10" value="Actions" style="strokeWidth=2;html=1;shape=mxgraph.flowchart.decision;whiteSpace=wrap;" vertex="1" parent="1">
          <mxGeometry x="2200" y="1680" width="100" height="100" as="geometry" />
        </mxCell>
        <mxCell id="JvTsSQbq0CaTdlD66tWc-19" style="edgeStyle=orthogonalEdgeStyle;rounded=0;orthogonalLoop=1;jettySize=auto;html=1;exitX=1;exitY=0.5;exitDx=0;exitDy=0;exitPerimeter=0;" edge="1" parent="1" source="JvTsSQbq0CaTdlD66tWc-12" target="JvTsSQbq0CaTdlD66tWc-18">
          <mxGeometry relative="1" as="geometry" />
        </mxCell>
        <mxCell id="JvTsSQbq0CaTdlD66tWc-12" value="Items" style="strokeWidth=2;html=1;shape=mxgraph.flowchart.decision;whiteSpace=wrap;" vertex="1" parent="1">
          <mxGeometry x="2200" y="1820" width="100" height="100" as="geometry" />
        </mxCell>
        <mxCell id="JvTsSQbq0CaTdlD66tWc-43" style="edgeStyle=orthogonalEdgeStyle;rounded=0;orthogonalLoop=1;jettySize=auto;html=1;exitX=1;exitY=0.5;exitDx=0;exitDy=0;exitPerimeter=0;" edge="1" parent="1" source="JvTsSQbq0CaTdlD66tWc-13" target="JvTsSQbq0CaTdlD66tWc-42">
          <mxGeometry relative="1" as="geometry" />
        </mxCell>
        <mxCell id="JvTsSQbq0CaTdlD66tWc-13" value="Skill" style="strokeWidth=2;html=1;shape=mxgraph.flowchart.decision;whiteSpace=wrap;" vertex="1" parent="1">
          <mxGeometry x="2200" y="1960" width="100" height="100" as="geometry" />
        </mxCell>
        <mxCell id="JvTsSQbq0CaTdlD66tWc-14" style="edgeStyle=orthogonalEdgeStyle;rounded=0;orthogonalLoop=1;jettySize=auto;html=1;exitX=0.5;exitY=1;exitDx=0;exitDy=0;exitPerimeter=0;entryX=0.5;entryY=0;entryDx=0;entryDy=0;entryPerimeter=0;" edge="1" parent="1" source="JvTsSQbq0CaTdlD66tWc-10" target="JvTsSQbq0CaTdlD66tWc-12">
          <mxGeometry relative="1" as="geometry" />
        </mxCell>
        <mxCell id="JvTsSQbq0CaTdlD66tWc-15" style="edgeStyle=orthogonalEdgeStyle;rounded=0;orthogonalLoop=1;jettySize=auto;html=1;exitX=0.5;exitY=1;exitDx=0;exitDy=0;exitPerimeter=0;entryX=0.5;entryY=0;entryDx=0;entryDy=0;entryPerimeter=0;" edge="1" parent="1" source="JvTsSQbq0CaTdlD66tWc-12" target="JvTsSQbq0CaTdlD66tWc-13">
          <mxGeometry relative="1" as="geometry" />
        </mxCell>
        <mxCell id="JvTsSQbq0CaTdlD66tWc-52" style="edgeStyle=orthogonalEdgeStyle;rounded=0;orthogonalLoop=1;jettySize=auto;html=1;exitX=1;exitY=0.5;exitDx=0;exitDy=0;exitPerimeter=0;" edge="1" parent="1" source="JvTsSQbq0CaTdlD66tWc-16" target="JvTsSQbq0CaTdlD66tWc-51">
          <mxGeometry relative="1" as="geometry" />
        </mxCell>
        <mxCell id="JvTsSQbq0CaTdlD66tWc-83" style="edgeStyle=orthogonalEdgeStyle;rounded=0;orthogonalLoop=1;jettySize=auto;html=1;exitX=0.5;exitY=1;exitDx=0;exitDy=0;exitPerimeter=0;entryX=0;entryY=0.5;entryDx=0;entryDy=0;" edge="1" parent="1" source="JvTsSQbq0CaTdlD66tWc-16" target="JvTsSQbq0CaTdlD66tWc-81">
          <mxGeometry relative="1" as="geometry" />
        </mxCell>
        <mxCell id="JvTsSQbq0CaTdlD66tWc-16" value="Attack" style="strokeWidth=2;html=1;shape=mxgraph.flowchart.decision;whiteSpace=wrap;" vertex="1" parent="1">
          <mxGeometry x="2200" y="2090" width="100" height="100" as="geometry" />
        </mxCell>
        <mxCell id="JvTsSQbq0CaTdlD66tWc-17" style="edgeStyle=orthogonalEdgeStyle;rounded=0;orthogonalLoop=1;jettySize=auto;html=1;exitX=0.5;exitY=1;exitDx=0;exitDy=0;exitPerimeter=0;entryX=0.5;entryY=0;entryDx=0;entryDy=0;entryPerimeter=0;" edge="1" parent="1" source="JvTsSQbq0CaTdlD66tWc-13" target="JvTsSQbq0CaTdlD66tWc-16">
          <mxGeometry relative="1" as="geometry" />
        </mxCell>
        <mxCell id="JvTsSQbq0CaTdlD66tWc-21" style="edgeStyle=orthogonalEdgeStyle;rounded=0;orthogonalLoop=1;jettySize=auto;html=1;exitX=1;exitY=0.5;exitDx=0;exitDy=0;" edge="1" parent="1" source="JvTsSQbq0CaTdlD66tWc-18" target="JvTsSQbq0CaTdlD66tWc-20">
          <mxGeometry relative="1" as="geometry" />
        </mxCell>
        <mxCell id="JvTsSQbq0CaTdlD66tWc-18" value="Mở inventory" style="rounded=1;whiteSpace=wrap;html=1;absoluteArcSize=1;arcSize=14;strokeWidth=2;" vertex="1" parent="1">
          <mxGeometry x="2390" y="1820" width="100" height="100" as="geometry" />
        </mxCell>
        <mxCell id="JvTsSQbq0CaTdlD66tWc-23" style="edgeStyle=orthogonalEdgeStyle;rounded=0;orthogonalLoop=1;jettySize=auto;html=1;exitX=1;exitY=0.5;exitDx=0;exitDy=0;entryX=0;entryY=0.5;entryDx=0;entryDy=0;" edge="1" parent="1" source="JvTsSQbq0CaTdlD66tWc-20" target="JvTsSQbq0CaTdlD66tWc-22">
          <mxGeometry relative="1" as="geometry" />
        </mxCell>
        <mxCell id="JvTsSQbq0CaTdlD66tWc-25" style="edgeStyle=orthogonalEdgeStyle;rounded=0;orthogonalLoop=1;jettySize=auto;html=1;exitX=1;exitY=0.5;exitDx=0;exitDy=0;entryX=0;entryY=0.5;entryDx=0;entryDy=0;" edge="1" parent="1" source="JvTsSQbq0CaTdlD66tWc-20" target="JvTsSQbq0CaTdlD66tWc-24">
          <mxGeometry relative="1" as="geometry" />
        </mxCell>
        <mxCell id="JvTsSQbq0CaTdlD66tWc-27" style="edgeStyle=orthogonalEdgeStyle;rounded=0;orthogonalLoop=1;jettySize=auto;html=1;exitX=1;exitY=0.5;exitDx=0;exitDy=0;entryX=0;entryY=0.5;entryDx=0;entryDy=0;" edge="1" parent="1" source="JvTsSQbq0CaTdlD66tWc-20" target="JvTsSQbq0CaTdlD66tWc-26">
          <mxGeometry relative="1" as="geometry" />
        </mxCell>
        <mxCell id="JvTsSQbq0CaTdlD66tWc-165" style="edgeStyle=orthogonalEdgeStyle;rounded=0;orthogonalLoop=1;jettySize=auto;html=1;exitX=0.5;exitY=0;exitDx=0;exitDy=0;entryX=0;entryY=0.5;entryDx=0;entryDy=0;" edge="1" parent="1" source="JvTsSQbq0CaTdlD66tWc-20" target="JvTsSQbq0CaTdlD66tWc-164">
          <mxGeometry relative="1" as="geometry" />
        </mxCell>
        <mxCell id="JvTsSQbq0CaTdlD66tWc-20" value="Chọn item" style="rounded=1;whiteSpace=wrap;html=1;absoluteArcSize=1;arcSize=14;strokeWidth=2;" vertex="1" parent="1">
          <mxGeometry x="2550" y="1820" width="100" height="100" as="geometry" />
        </mxCell>
        <mxCell id="JvTsSQbq0CaTdlD66tWc-22" value="Item change stats" style="rounded=1;whiteSpace=wrap;html=1;absoluteArcSize=1;arcSize=14;strokeWidth=2;" vertex="1" parent="1">
          <mxGeometry x="2750" y="1690" width="100" height="100" as="geometry" />
        </mxCell>
        <mxCell id="JvTsSQbq0CaTdlD66tWc-24" value="Item có unique mechanic effect" style="rounded=1;whiteSpace=wrap;html=1;absoluteArcSize=1;arcSize=14;strokeWidth=2;" vertex="1" parent="1">
          <mxGeometry x="2750" y="1820" width="100" height="100" as="geometry" />
        </mxCell>
        <mxCell id="JvTsSQbq0CaTdlD66tWc-26" value="Item teleport" style="rounded=1;whiteSpace=wrap;html=1;absoluteArcSize=1;arcSize=14;strokeWidth=2;" vertex="1" parent="1">
          <mxGeometry x="2750" y="1930" width="100" height="100" as="geometry" />
        </mxCell>
        <mxCell id="JvTsSQbq0CaTdlD66tWc-36" style="edgeStyle=orthogonalEdgeStyle;rounded=0;orthogonalLoop=1;jettySize=auto;html=1;exitX=1;exitY=0.5;exitDx=0;exitDy=0;exitPerimeter=0;entryX=0;entryY=0.5;entryDx=0;entryDy=0;" edge="1" parent="1" source="JvTsSQbq0CaTdlD66tWc-28" target="JvTsSQbq0CaTdlD66tWc-35">
          <mxGeometry relative="1" as="geometry" />
        </mxCell>
        <mxCell id="JvTsSQbq0CaTdlD66tWc-28" value="Chọn Item -&amp;gt; Chọn đối tượng apply" style="strokeWidth=2;html=1;shape=mxgraph.flowchart.decision;whiteSpace=wrap;" vertex="1" parent="1">
          <mxGeometry x="2910" y="1690" width="100" height="100" as="geometry" />
        </mxCell>
        <mxCell id="JvTsSQbq0CaTdlD66tWc-29" style="edgeStyle=orthogonalEdgeStyle;rounded=0;orthogonalLoop=1;jettySize=auto;html=1;exitX=1;exitY=0.5;exitDx=0;exitDy=0;entryX=0;entryY=0.5;entryDx=0;entryDy=0;entryPerimeter=0;" edge="1" parent="1" source="JvTsSQbq0CaTdlD66tWc-22" target="JvTsSQbq0CaTdlD66tWc-28">
          <mxGeometry relative="1" as="geometry" />
        </mxCell>
        <mxCell id="JvTsSQbq0CaTdlD66tWc-31" style="edgeStyle=orthogonalEdgeStyle;rounded=0;orthogonalLoop=1;jettySize=auto;html=1;exitX=1;exitY=0.5;exitDx=0;exitDy=0;exitPerimeter=0;entryX=0;entryY=0.5;entryDx=0;entryDy=0;entryPerimeter=0;" edge="1" parent="1" source="JvTsSQbq0CaTdlD66tWc-28">
          <mxGeometry relative="1" as="geometry">
            <mxPoint x="3050" y="1740" as="targetPoint" />
          </mxGeometry>
        </mxCell>
        <mxCell id="JvTsSQbq0CaTdlD66tWc-92" style="edgeStyle=orthogonalEdgeStyle;rounded=0;orthogonalLoop=1;jettySize=auto;html=1;exitX=1;exitY=0.5;exitDx=0;exitDy=0;entryX=0.5;entryY=0;entryDx=0;entryDy=0;" edge="1" parent="1" source="JvTsSQbq0CaTdlD66tWc-32" target="JvTsSQbq0CaTdlD66tWc-90">
          <mxGeometry relative="1" as="geometry" />
        </mxCell>
        <mxCell id="JvTsSQbq0CaTdlD66tWc-32" value="Hiển thị lượng đã đổi" style="rounded=1;whiteSpace=wrap;html=1;absoluteArcSize=1;arcSize=14;strokeWidth=2;" vertex="1" parent="1">
          <mxGeometry x="3050" y="1690" width="100" height="100" as="geometry" />
        </mxCell>
        <mxCell id="JvTsSQbq0CaTdlD66tWc-33" style="edgeStyle=orthogonalEdgeStyle;rounded=0;orthogonalLoop=1;jettySize=auto;html=1;exitX=1;exitY=0.5;exitDx=0;exitDy=0;entryX=0.5;entryY=1;entryDx=0;entryDy=0;entryPerimeter=0;" edge="1" parent="1" source="JvTsSQbq0CaTdlD66tWc-24" target="JvTsSQbq0CaTdlD66tWc-28">
          <mxGeometry relative="1" as="geometry" />
        </mxCell>
        <mxCell id="JvTsSQbq0CaTdlD66tWc-91" style="edgeStyle=orthogonalEdgeStyle;rounded=0;orthogonalLoop=1;jettySize=auto;html=1;exitX=1;exitY=0.5;exitDx=0;exitDy=0;entryX=0;entryY=0.5;entryDx=0;entryDy=0;" edge="1" parent="1" source="JvTsSQbq0CaTdlD66tWc-35" target="JvTsSQbq0CaTdlD66tWc-90">
          <mxGeometry relative="1" as="geometry" />
        </mxCell>
        <mxCell id="JvTsSQbq0CaTdlD66tWc-35" value="Apply hiệu ứng&amp;nbsp;" style="rounded=1;whiteSpace=wrap;html=1;absoluteArcSize=1;arcSize=14;strokeWidth=2;" vertex="1" parent="1">
          <mxGeometry x="3050" y="1820" width="100" height="100" as="geometry" />
        </mxCell>
        <mxCell id="JvTsSQbq0CaTdlD66tWc-49" style="edgeStyle=orthogonalEdgeStyle;rounded=0;orthogonalLoop=1;jettySize=auto;html=1;exitX=1;exitY=0.5;exitDx=0;exitDy=0;exitPerimeter=0;entryX=0;entryY=0.5;entryDx=0;entryDy=0;" edge="1" parent="1" source="JvTsSQbq0CaTdlD66tWc-38" target="JvTsSQbq0CaTdlD66tWc-48">
          <mxGeometry relative="1" as="geometry" />
        </mxCell>
        <mxCell id="JvTsSQbq0CaTdlD66tWc-38" value="Chọn location trong Map muốn tele tới" style="strokeWidth=2;html=1;shape=mxgraph.flowchart.decision;whiteSpace=wrap;" vertex="1" parent="1">
          <mxGeometry x="2910" y="1930" width="100" height="100" as="geometry" />
        </mxCell>
        <mxCell id="JvTsSQbq0CaTdlD66tWc-39" style="edgeStyle=orthogonalEdgeStyle;rounded=0;orthogonalLoop=1;jettySize=auto;html=1;exitX=1;exitY=0.5;exitDx=0;exitDy=0;entryX=0;entryY=0.5;entryDx=0;entryDy=0;entryPerimeter=0;" edge="1" parent="1" source="JvTsSQbq0CaTdlD66tWc-26" target="JvTsSQbq0CaTdlD66tWc-38">
          <mxGeometry relative="1" as="geometry" />
        </mxCell>
        <mxCell id="JvTsSQbq0CaTdlD66tWc-95" style="edgeStyle=orthogonalEdgeStyle;rounded=0;orthogonalLoop=1;jettySize=auto;html=1;exitX=1;exitY=0.5;exitDx=0;exitDy=0;entryX=0;entryY=0.5;entryDx=0;entryDy=0;" edge="1" parent="1" source="JvTsSQbq0CaTdlD66tWc-40" target="JvTsSQbq0CaTdlD66tWc-94">
          <mxGeometry relative="1" as="geometry" />
        </mxCell>
        <mxCell id="JvTsSQbq0CaTdlD66tWc-40" value="Tất cả member trong đội được đưa đến vị trí đó, bao gồm cả đem theo xác người đó" style="rounded=1;whiteSpace=wrap;html=1;absoluteArcSize=1;arcSize=14;strokeWidth=2;" vertex="1" parent="1">
          <mxGeometry x="3240" y="1930" width="100" height="100" as="geometry" />
        </mxCell>
        <mxCell id="JvTsSQbq0CaTdlD66tWc-42" value="Check luồng nhân vật" style="rounded=1;whiteSpace=wrap;html=1;absoluteArcSize=1;arcSize=14;strokeWidth=2;" vertex="1" parent="1">
          <mxGeometry x="2390" y="1960" width="100" height="100" as="geometry" />
        </mxCell>
        <mxCell id="JvTsSQbq0CaTdlD66tWc-47" style="edgeStyle=orthogonalEdgeStyle;rounded=0;orthogonalLoop=1;jettySize=auto;html=1;exitX=1;exitY=0.5;exitDx=0;exitDy=0;exitPerimeter=0;entryX=0.5;entryY=0;entryDx=0;entryDy=0;" edge="1" parent="1" source="JvTsSQbq0CaTdlD66tWc-44" target="JvTsSQbq0CaTdlD66tWc-46">
          <mxGeometry relative="1" as="geometry" />
        </mxCell>
        <mxCell id="JvTsSQbq0CaTdlD66tWc-44" value="Chọn Skill và chọn đối tượng" style="strokeWidth=2;html=1;shape=mxgraph.flowchart.decision;whiteSpace=wrap;" vertex="1" parent="1">
          <mxGeometry x="2550" y="1960" width="100" height="100" as="geometry" />
        </mxCell>
        <mxCell id="JvTsSQbq0CaTdlD66tWc-45" style="edgeStyle=orthogonalEdgeStyle;rounded=0;orthogonalLoop=1;jettySize=auto;html=1;exitX=1;exitY=0.5;exitDx=0;exitDy=0;entryX=0;entryY=0.5;entryDx=0;entryDy=0;entryPerimeter=0;" edge="1" parent="1" source="JvTsSQbq0CaTdlD66tWc-42" target="JvTsSQbq0CaTdlD66tWc-44">
          <mxGeometry relative="1" as="geometry" />
        </mxCell>
        <mxCell id="JvTsSQbq0CaTdlD66tWc-97" style="edgeStyle=orthogonalEdgeStyle;rounded=0;orthogonalLoop=1;jettySize=auto;html=1;exitX=1;exitY=0.5;exitDx=0;exitDy=0;entryX=0;entryY=0.5;entryDx=0;entryDy=0;" edge="1" parent="1" source="JvTsSQbq0CaTdlD66tWc-46" target="JvTsSQbq0CaTdlD66tWc-96">
          <mxGeometry relative="1" as="geometry" />
        </mxCell>
        <mxCell id="JvTsSQbq0CaTdlD66tWc-46" value="Apply Skill và hiển thị sự thay đổi (về stats hoặc gì đó khác nếu có)" style="rounded=1;whiteSpace=wrap;html=1;absoluteArcSize=1;arcSize=14;strokeWidth=2;" vertex="1" parent="1">
          <mxGeometry x="2650" y="2040" width="100" height="100" as="geometry" />
        </mxCell>
        <mxCell id="JvTsSQbq0CaTdlD66tWc-50" style="edgeStyle=orthogonalEdgeStyle;rounded=0;orthogonalLoop=1;jettySize=auto;html=1;exitX=1;exitY=0.5;exitDx=0;exitDy=0;entryX=0;entryY=0.5;entryDx=0;entryDy=0;" edge="1" parent="1" source="JvTsSQbq0CaTdlD66tWc-48" target="JvTsSQbq0CaTdlD66tWc-40">
          <mxGeometry relative="1" as="geometry" />
        </mxCell>
        <mxCell id="JvTsSQbq0CaTdlD66tWc-48" value="&#xa;&lt;span style=&quot;color: rgb(255, 255, 255); font-family: Helvetica; font-size: 12px; font-style: normal; font-variant-ligatures: normal; font-variant-caps: normal; font-weight: 400; letter-spacing: normal; orphans: 2; text-align: center; text-indent: 0px; text-transform: none; widows: 2; word-spacing: 0px; -webkit-text-stroke-width: 0px; white-space: normal; background-color: rgb(27, 29, 30); text-decoration-thickness: initial; text-decoration-style: initial; text-decoration-color: initial; display: inline !important; float: none;&quot;&gt;Tỉ lệ thành công = Random(0-1) + (Tổng HP ta - tổng hp địch) / tổng hp ta &amp;gt; 1&amp;nbsp;&lt;/span&gt;&#xa;&#xa;" style="rounded=1;whiteSpace=wrap;html=1;absoluteArcSize=1;arcSize=14;strokeWidth=2;" vertex="1" parent="1">
          <mxGeometry x="3050" y="1930" width="100" height="100" as="geometry" />
        </mxCell>
        <mxCell id="JvTsSQbq0CaTdlD66tWc-54" style="edgeStyle=orthogonalEdgeStyle;rounded=0;orthogonalLoop=1;jettySize=auto;html=1;exitX=1;exitY=0.5;exitDx=0;exitDy=0;" edge="1" parent="1" source="JvTsSQbq0CaTdlD66tWc-51" target="JvTsSQbq0CaTdlD66tWc-53">
          <mxGeometry relative="1" as="geometry" />
        </mxCell>
        <mxCell id="JvTsSQbq0CaTdlD66tWc-51" value="Chọn đối tượng (lock on đối tượng kẻ địch only)" style="rounded=1;whiteSpace=wrap;html=1;absoluteArcSize=1;arcSize=14;strokeWidth=2;" vertex="1" parent="1">
          <mxGeometry x="2381" y="2090" width="100" height="100" as="geometry" />
        </mxCell>
        <mxCell id="JvTsSQbq0CaTdlD66tWc-98" style="edgeStyle=orthogonalEdgeStyle;rounded=0;orthogonalLoop=1;jettySize=auto;html=1;exitX=1;exitY=0.5;exitDx=0;exitDy=0;" edge="1" parent="1" source="JvTsSQbq0CaTdlD66tWc-53" target="JvTsSQbq0CaTdlD66tWc-99">
          <mxGeometry relative="1" as="geometry">
            <mxPoint x="2990" y="2180.2105263157896" as="targetPoint" />
          </mxGeometry>
        </mxCell>
        <mxCell id="JvTsSQbq0CaTdlD66tWc-53" value="hiển thị sự thay đổi" style="rounded=1;whiteSpace=wrap;html=1;absoluteArcSize=1;arcSize=14;strokeWidth=2;" vertex="1" parent="1">
          <mxGeometry x="2810" y="2130" width="100" height="100" as="geometry" />
        </mxCell>
        <mxCell id="JvTsSQbq0CaTdlD66tWc-55" value="Luồng inventory" style="rounded=1;whiteSpace=wrap;html=1;absoluteArcSize=1;arcSize=14;strokeWidth=2;" vertex="1" parent="1">
          <mxGeometry x="2210" y="2390" width="100" height="100" as="geometry" />
        </mxCell>
        <mxCell id="JvTsSQbq0CaTdlD66tWc-60" style="edgeStyle=orthogonalEdgeStyle;rounded=0;orthogonalLoop=1;jettySize=auto;html=1;exitX=1;exitY=0.5;exitDx=0;exitDy=0;exitPerimeter=0;entryX=0;entryY=0.5;entryDx=0;entryDy=0;" edge="1" parent="1" source="JvTsSQbq0CaTdlD66tWc-56" target="JvTsSQbq0CaTdlD66tWc-59">
          <mxGeometry relative="1" as="geometry" />
        </mxCell>
        <mxCell id="JvTsSQbq0CaTdlD66tWc-56" value="Option mở inventory" style="strokeWidth=2;html=1;shape=mxgraph.flowchart.decision;whiteSpace=wrap;" vertex="1" parent="1">
          <mxGeometry x="2380" y="2390" width="100" height="100" as="geometry" />
        </mxCell>
        <mxCell id="JvTsSQbq0CaTdlD66tWc-57" style="edgeStyle=orthogonalEdgeStyle;rounded=0;orthogonalLoop=1;jettySize=auto;html=1;exitX=1;exitY=0.5;exitDx=0;exitDy=0;entryX=0;entryY=0.5;entryDx=0;entryDy=0;entryPerimeter=0;" edge="1" parent="1" source="JvTsSQbq0CaTdlD66tWc-55" target="JvTsSQbq0CaTdlD66tWc-56">
          <mxGeometry relative="1" as="geometry" />
        </mxCell>
        <mxCell id="JvTsSQbq0CaTdlD66tWc-59" value="View inventory" style="rounded=1;whiteSpace=wrap;html=1;absoluteArcSize=1;arcSize=14;strokeWidth=2;" vertex="1" parent="1">
          <mxGeometry x="2530" y="2390" width="100" height="100" as="geometry" />
        </mxCell>
        <mxCell id="JvTsSQbq0CaTdlD66tWc-64" style="edgeStyle=orthogonalEdgeStyle;rounded=0;orthogonalLoop=1;jettySize=auto;html=1;exitX=1;exitY=0.5;exitDx=0;exitDy=0;exitPerimeter=0;entryX=0;entryY=0.5;entryDx=0;entryDy=0;" edge="1" parent="1" source="JvTsSQbq0CaTdlD66tWc-61" target="JvTsSQbq0CaTdlD66tWc-63">
          <mxGeometry relative="1" as="geometry" />
        </mxCell>
        <mxCell id="JvTsSQbq0CaTdlD66tWc-61" value="Select Item&lt;div&gt;Use or any action with it&lt;/div&gt;" style="strokeWidth=2;html=1;shape=mxgraph.flowchart.decision;whiteSpace=wrap;" vertex="1" parent="1">
          <mxGeometry x="2680" y="2390" width="100" height="100" as="geometry" />
        </mxCell>
        <mxCell id="JvTsSQbq0CaTdlD66tWc-62" style="edgeStyle=orthogonalEdgeStyle;rounded=0;orthogonalLoop=1;jettySize=auto;html=1;exitX=1;exitY=0.5;exitDx=0;exitDy=0;entryX=0;entryY=0.5;entryDx=0;entryDy=0;entryPerimeter=0;" edge="1" parent="1" source="JvTsSQbq0CaTdlD66tWc-59" target="JvTsSQbq0CaTdlD66tWc-61">
          <mxGeometry relative="1" as="geometry" />
        </mxCell>
        <mxCell id="JvTsSQbq0CaTdlD66tWc-162" style="edgeStyle=orthogonalEdgeStyle;rounded=0;orthogonalLoop=1;jettySize=auto;html=1;exitX=1;exitY=0.5;exitDx=0;exitDy=0;" edge="1" parent="1" source="JvTsSQbq0CaTdlD66tWc-63" target="JvTsSQbq0CaTdlD66tWc-161">
          <mxGeometry relative="1" as="geometry" />
        </mxCell>
        <mxCell id="JvTsSQbq0CaTdlD66tWc-63" value="update inventory (remove or add amount of item(s) been used or added)" style="rounded=1;whiteSpace=wrap;html=1;absoluteArcSize=1;arcSize=14;strokeWidth=2;" vertex="1" parent="1">
          <mxGeometry x="2850" y="2390" width="100" height="100" as="geometry" />
        </mxCell>
        <mxCell id="JvTsSQbq0CaTdlD66tWc-68" style="edgeStyle=orthogonalEdgeStyle;rounded=0;orthogonalLoop=1;jettySize=auto;html=1;exitX=1;exitY=0.5;exitDx=0;exitDy=0;exitPerimeter=0;entryX=0;entryY=0.5;entryDx=0;entryDy=0;" edge="1" parent="1" source="JvTsSQbq0CaTdlD66tWc-65" target="JvTsSQbq0CaTdlD66tWc-67">
          <mxGeometry relative="1" as="geometry" />
        </mxCell>
        <mxCell id="JvTsSQbq0CaTdlD66tWc-65" value="Chest đươc open" style="strokeWidth=2;html=1;shape=mxgraph.flowchart.decision;whiteSpace=wrap;" vertex="1" parent="1">
          <mxGeometry x="2210" y="2550" width="100" height="100" as="geometry" />
        </mxCell>
        <mxCell id="JvTsSQbq0CaTdlD66tWc-66" style="edgeStyle=orthogonalEdgeStyle;rounded=0;orthogonalLoop=1;jettySize=auto;html=1;exitX=0.5;exitY=1;exitDx=0;exitDy=0;entryX=0.5;entryY=0;entryDx=0;entryDy=0;entryPerimeter=0;" edge="1" parent="1" source="JvTsSQbq0CaTdlD66tWc-55" target="JvTsSQbq0CaTdlD66tWc-65">
          <mxGeometry relative="1" as="geometry" />
        </mxCell>
        <mxCell id="JvTsSQbq0CaTdlD66tWc-74" style="edgeStyle=orthogonalEdgeStyle;rounded=0;orthogonalLoop=1;jettySize=auto;html=1;exitX=1;exitY=0.5;exitDx=0;exitDy=0;" edge="1" parent="1" source="JvTsSQbq0CaTdlD66tWc-67" target="JvTsSQbq0CaTdlD66tWc-73">
          <mxGeometry relative="1" as="geometry" />
        </mxCell>
        <mxCell id="JvTsSQbq0CaTdlD66tWc-67" value="Hiển thị content" style="rounded=1;whiteSpace=wrap;html=1;absoluteArcSize=1;arcSize=14;strokeWidth=2;" vertex="1" parent="1">
          <mxGeometry x="2380" y="2550" width="100" height="100" as="geometry" />
        </mxCell>
        <mxCell id="JvTsSQbq0CaTdlD66tWc-71" value="Hiển thị cho người dùng item và số lượng thay đổi và còn bao nhiêu" style="rounded=1;whiteSpace=wrap;html=1;absoluteArcSize=1;arcSize=14;strokeWidth=2;" vertex="1" parent="1">
          <mxGeometry x="3280" y="2390" width="110" height="100" as="geometry" />
        </mxCell>
        <mxCell id="JvTsSQbq0CaTdlD66tWc-75" style="edgeStyle=orthogonalEdgeStyle;rounded=0;orthogonalLoop=1;jettySize=auto;html=1;exitX=1;exitY=0.5;exitDx=0;exitDy=0;exitPerimeter=0;entryX=0.5;entryY=1;entryDx=0;entryDy=0;" edge="1" parent="1" source="JvTsSQbq0CaTdlD66tWc-73" target="JvTsSQbq0CaTdlD66tWc-63">
          <mxGeometry relative="1" as="geometry" />
        </mxCell>
        <mxCell id="JvTsSQbq0CaTdlD66tWc-73" value="Chọn item để loot" style="strokeWidth=2;html=1;shape=mxgraph.flowchart.decision;whiteSpace=wrap;" vertex="1" parent="1">
          <mxGeometry x="2530" y="2550" width="100" height="100" as="geometry" />
        </mxCell>
        <mxCell id="JvTsSQbq0CaTdlD66tWc-76" value="Quái rơi ra items" style="rounded=1;whiteSpace=wrap;html=1;absoluteArcSize=1;arcSize=14;strokeWidth=2;" vertex="1" parent="1">
          <mxGeometry x="2210" y="2710" width="100" height="100" as="geometry" />
        </mxCell>
        <mxCell id="JvTsSQbq0CaTdlD66tWc-80" style="edgeStyle=orthogonalEdgeStyle;rounded=0;orthogonalLoop=1;jettySize=auto;html=1;exitX=0.5;exitY=0;exitDx=0;exitDy=0;exitPerimeter=0;entryX=0.5;entryY=1;entryDx=0;entryDy=0;" edge="1" parent="1" source="JvTsSQbq0CaTdlD66tWc-77" target="JvTsSQbq0CaTdlD66tWc-67">
          <mxGeometry relative="1" as="geometry" />
        </mxCell>
        <mxCell id="JvTsSQbq0CaTdlD66tWc-77" value="Check xác quái" style="strokeWidth=2;html=1;shape=mxgraph.flowchart.decision;whiteSpace=wrap;" vertex="1" parent="1">
          <mxGeometry x="2380" y="2710" width="100" height="100" as="geometry" />
        </mxCell>
        <mxCell id="JvTsSQbq0CaTdlD66tWc-78" style="edgeStyle=orthogonalEdgeStyle;rounded=0;orthogonalLoop=1;jettySize=auto;html=1;exitX=1;exitY=0.5;exitDx=0;exitDy=0;entryX=0;entryY=0.5;entryDx=0;entryDy=0;entryPerimeter=0;" edge="1" parent="1" source="JvTsSQbq0CaTdlD66tWc-76" target="JvTsSQbq0CaTdlD66tWc-77">
          <mxGeometry relative="1" as="geometry" />
        </mxCell>
        <mxCell id="JvTsSQbq0CaTdlD66tWc-84" style="edgeStyle=orthogonalEdgeStyle;rounded=0;orthogonalLoop=1;jettySize=auto;html=1;exitX=0.5;exitY=0;exitDx=0;exitDy=0;entryX=0.5;entryY=1;entryDx=0;entryDy=0;" edge="1" parent="1" source="JvTsSQbq0CaTdlD66tWc-81" target="JvTsSQbq0CaTdlD66tWc-51">
          <mxGeometry relative="1" as="geometry" />
        </mxCell>
        <mxCell id="JvTsSQbq0CaTdlD66tWc-81" value="Check HP/state alive or dead of enemies" style="rounded=1;whiteSpace=wrap;html=1;absoluteArcSize=1;arcSize=14;strokeWidth=2;" vertex="1" parent="1">
          <mxGeometry x="2380" y="2220" width="100" height="100" as="geometry" />
        </mxCell>
        <mxCell id="JvTsSQbq0CaTdlD66tWc-132" style="edgeStyle=orthogonalEdgeStyle;rounded=0;orthogonalLoop=1;jettySize=auto;html=1;exitX=1;exitY=0.5;exitDx=0;exitDy=0;entryX=0.5;entryY=0;entryDx=0;entryDy=0;" edge="1" parent="1" source="JvTsSQbq0CaTdlD66tWc-85" target="JvTsSQbq0CaTdlD66tWc-87">
          <mxGeometry relative="1" as="geometry" />
        </mxCell>
        <mxCell id="JvTsSQbq0CaTdlD66tWc-85" value="Bắt đầu turn cycle process" style="rounded=1;whiteSpace=wrap;html=1;absoluteArcSize=1;arcSize=14;strokeWidth=2;" vertex="1" parent="1">
          <mxGeometry x="1870" y="1670" width="100" height="100" as="geometry" />
        </mxCell>
        <mxCell id="JvTsSQbq0CaTdlD66tWc-87" value="Ally turn" style="rounded=1;whiteSpace=wrap;html=1;absoluteArcSize=1;arcSize=14;strokeWidth=2;" vertex="1" parent="1">
          <mxGeometry x="2050" y="1830" width="100" height="100" as="geometry" />
        </mxCell>
        <mxCell id="JvTsSQbq0CaTdlD66tWc-89" style="edgeStyle=orthogonalEdgeStyle;rounded=0;orthogonalLoop=1;jettySize=auto;html=1;exitX=1;exitY=0.5;exitDx=0;exitDy=0;entryX=0;entryY=0.5;entryDx=0;entryDy=0;entryPerimeter=0;" edge="1" parent="1" source="JvTsSQbq0CaTdlD66tWc-87" target="JvTsSQbq0CaTdlD66tWc-10">
          <mxGeometry relative="1" as="geometry" />
        </mxCell>
        <mxCell id="JvTsSQbq0CaTdlD66tWc-90" value="Item usage turn ended, no longer being able to use anymore items" style="rounded=1;whiteSpace=wrap;html=1;absoluteArcSize=1;arcSize=14;strokeWidth=2;" vertex="1" parent="1">
          <mxGeometry x="3240" y="1820" width="100" height="100" as="geometry" />
        </mxCell>
        <mxCell id="JvTsSQbq0CaTdlD66tWc-94" value="hết cycle thám hiểm của 1 ngày, không thể tiếp tục đi vượt ải vào cùng ngày thoát combat theo cách này" style="rounded=1;whiteSpace=wrap;html=1;absoluteArcSize=1;arcSize=14;strokeWidth=2;" vertex="1" parent="1">
          <mxGeometry x="3400" y="1930" width="100" height="100" as="geometry" />
        </mxCell>
        <mxCell id="JvTsSQbq0CaTdlD66tWc-96" value="hết lượt dùng skill" style="rounded=1;whiteSpace=wrap;html=1;absoluteArcSize=1;arcSize=14;strokeWidth=2;" vertex="1" parent="1">
          <mxGeometry x="2810" y="2050" width="80" height="70" as="geometry" />
        </mxCell>
        <mxCell id="JvTsSQbq0CaTdlD66tWc-100" style="edgeStyle=orthogonalEdgeStyle;rounded=0;orthogonalLoop=1;jettySize=auto;html=1;exitX=1;exitY=0.5;exitDx=0;exitDy=0;" edge="1" parent="1" source="JvTsSQbq0CaTdlD66tWc-99" target="JvTsSQbq0CaTdlD66tWc-101">
          <mxGeometry relative="1" as="geometry">
            <mxPoint x="3160" y="2180.2105263157896" as="targetPoint" />
          </mxGeometry>
        </mxCell>
        <mxCell id="JvTsSQbq0CaTdlD66tWc-99" value="Check status của kẻ địch, 0 HP dưới điều kiện thường = change object từ nhân vật sang xác loot + generate items" style="rounded=1;whiteSpace=wrap;html=1;absoluteArcSize=1;arcSize=14;strokeWidth=2;" vertex="1" parent="1">
          <mxGeometry x="2980" y="2130.0005263157896" width="100" height="100" as="geometry" />
        </mxCell>
        <mxCell id="JvTsSQbq0CaTdlD66tWc-101" value="kết thúc lượt của nhân vật vừa attack, chuyển sang turn cycle của kẻ địch" style="rounded=1;whiteSpace=wrap;html=1;absoluteArcSize=1;arcSize=14;strokeWidth=2;" vertex="1" parent="1">
          <mxGeometry x="3180" y="2130.0005263157896" width="100" height="100" as="geometry" />
        </mxCell>
        <mxCell id="JvTsSQbq0CaTdlD66tWc-105" style="edgeStyle=orthogonalEdgeStyle;rounded=0;orthogonalLoop=1;jettySize=auto;html=1;exitX=1;exitY=0.5;exitDx=0;exitDy=0;entryX=0;entryY=0.5;entryDx=0;entryDy=0;" edge="1" parent="1" source="JvTsSQbq0CaTdlD66tWc-102" target="JvTsSQbq0CaTdlD66tWc-104">
          <mxGeometry relative="1" as="geometry" />
        </mxCell>
        <mxCell id="JvTsSQbq0CaTdlD66tWc-102" value="Enemies turn" style="rounded=1;whiteSpace=wrap;html=1;absoluteArcSize=1;arcSize=14;strokeWidth=2;" vertex="1" parent="1">
          <mxGeometry x="3440" y="2130" width="100" height="100" as="geometry" />
        </mxCell>
        <mxCell id="JvTsSQbq0CaTdlD66tWc-107" style="edgeStyle=orthogonalEdgeStyle;rounded=0;orthogonalLoop=1;jettySize=auto;html=1;exitX=1;exitY=0.5;exitDx=0;exitDy=0;" edge="1" parent="1" source="JvTsSQbq0CaTdlD66tWc-104" target="JvTsSQbq0CaTdlD66tWc-106">
          <mxGeometry relative="1" as="geometry" />
        </mxCell>
        <mxCell id="JvTsSQbq0CaTdlD66tWc-111" style="edgeStyle=orthogonalEdgeStyle;rounded=0;orthogonalLoop=1;jettySize=auto;html=1;exitX=1;exitY=0.5;exitDx=0;exitDy=0;entryX=0;entryY=0.5;entryDx=0;entryDy=0;" edge="1" parent="1" source="JvTsSQbq0CaTdlD66tWc-104" target="JvTsSQbq0CaTdlD66tWc-110">
          <mxGeometry relative="1" as="geometry" />
        </mxCell>
        <mxCell id="JvTsSQbq0CaTdlD66tWc-104" value="Check status" style="rounded=1;whiteSpace=wrap;html=1;absoluteArcSize=1;arcSize=14;strokeWidth=2;" vertex="1" parent="1">
          <mxGeometry x="3610" y="2130" width="100" height="100" as="geometry" />
        </mxCell>
        <mxCell id="JvTsSQbq0CaTdlD66tWc-109" style="edgeStyle=orthogonalEdgeStyle;rounded=0;orthogonalLoop=1;jettySize=auto;html=1;exitX=1;exitY=0.5;exitDx=0;exitDy=0;entryX=0;entryY=0.5;entryDx=0;entryDy=0;" edge="1" parent="1" source="JvTsSQbq0CaTdlD66tWc-106" target="JvTsSQbq0CaTdlD66tWc-108">
          <mxGeometry relative="1" as="geometry" />
        </mxCell>
        <mxCell id="JvTsSQbq0CaTdlD66tWc-106" value="không còn khả năng chiến đấu" style="rounded=1;whiteSpace=wrap;html=1;absoluteArcSize=1;arcSize=14;strokeWidth=2;" vertex="1" parent="1">
          <mxGeometry x="3790" y="2130" width="100" height="100" as="geometry" />
        </mxCell>
        <mxCell id="JvTsSQbq0CaTdlD66tWc-108" value="Chỉ là Xác loot, không chuyển turn sang cho đối tượng này" style="rounded=1;whiteSpace=wrap;html=1;absoluteArcSize=1;arcSize=14;strokeWidth=2;" vertex="1" parent="1">
          <mxGeometry x="3960" y="2130" width="100" height="100" as="geometry" />
        </mxCell>
        <mxCell id="JvTsSQbq0CaTdlD66tWc-113" style="edgeStyle=orthogonalEdgeStyle;rounded=0;orthogonalLoop=1;jettySize=auto;html=1;exitX=1;exitY=0.5;exitDx=0;exitDy=0;entryX=0;entryY=0.5;entryDx=0;entryDy=0;" edge="1" parent="1" source="JvTsSQbq0CaTdlD66tWc-110" target="JvTsSQbq0CaTdlD66tWc-112">
          <mxGeometry relative="1" as="geometry" />
        </mxCell>
        <mxCell id="JvTsSQbq0CaTdlD66tWc-121" style="edgeStyle=orthogonalEdgeStyle;rounded=0;orthogonalLoop=1;jettySize=auto;html=1;exitX=1;exitY=0.5;exitDx=0;exitDy=0;entryX=0;entryY=0.5;entryDx=0;entryDy=0;" edge="1" parent="1" source="JvTsSQbq0CaTdlD66tWc-110" target="JvTsSQbq0CaTdlD66tWc-120">
          <mxGeometry relative="1" as="geometry" />
        </mxCell>
        <mxCell id="JvTsSQbq0CaTdlD66tWc-140" style="edgeStyle=orthogonalEdgeStyle;rounded=0;orthogonalLoop=1;jettySize=auto;html=1;exitX=1;exitY=0.5;exitDx=0;exitDy=0;entryX=0;entryY=0.5;entryDx=0;entryDy=0;" edge="1" parent="1" source="JvTsSQbq0CaTdlD66tWc-110" target="JvTsSQbq0CaTdlD66tWc-139">
          <mxGeometry relative="1" as="geometry" />
        </mxCell>
        <mxCell id="JvTsSQbq0CaTdlD66tWc-156" style="edgeStyle=orthogonalEdgeStyle;rounded=0;orthogonalLoop=1;jettySize=auto;html=1;exitX=1;exitY=0.5;exitDx=0;exitDy=0;entryX=0;entryY=0.5;entryDx=0;entryDy=0;" edge="1" parent="1" source="JvTsSQbq0CaTdlD66tWc-110" target="JvTsSQbq0CaTdlD66tWc-155">
          <mxGeometry relative="1" as="geometry" />
        </mxCell>
        <mxCell id="JvTsSQbq0CaTdlD66tWc-110" value="Vẫn còn khả năng chiến đấu" style="rounded=1;whiteSpace=wrap;html=1;absoluteArcSize=1;arcSize=14;strokeWidth=2;" vertex="1" parent="1">
          <mxGeometry x="3790" y="2290" width="100" height="100" as="geometry" />
        </mxCell>
        <mxCell id="JvTsSQbq0CaTdlD66tWc-115" style="edgeStyle=orthogonalEdgeStyle;rounded=0;orthogonalLoop=1;jettySize=auto;html=1;exitX=1;exitY=0.5;exitDx=0;exitDy=0;entryX=0;entryY=0.5;entryDx=0;entryDy=0;" edge="1" parent="1" source="JvTsSQbq0CaTdlD66tWc-112" target="JvTsSQbq0CaTdlD66tWc-114">
          <mxGeometry relative="1" as="geometry" />
        </mxCell>
        <mxCell id="JvTsSQbq0CaTdlD66tWc-112" value="Skill" style="rounded=1;whiteSpace=wrap;html=1;absoluteArcSize=1;arcSize=14;strokeWidth=2;" vertex="1" parent="1">
          <mxGeometry x="3960" y="2290" width="100" height="100" as="geometry" />
        </mxCell>
        <mxCell id="JvTsSQbq0CaTdlD66tWc-117" style="edgeStyle=orthogonalEdgeStyle;rounded=0;orthogonalLoop=1;jettySize=auto;html=1;exitX=1;exitY=0.5;exitDx=0;exitDy=0;entryX=0;entryY=0.5;entryDx=0;entryDy=0;" edge="1" parent="1" source="JvTsSQbq0CaTdlD66tWc-114" target="JvTsSQbq0CaTdlD66tWc-116">
          <mxGeometry relative="1" as="geometry" />
        </mxCell>
        <mxCell id="JvTsSQbq0CaTdlD66tWc-114" value="nếu chọn hiệu ứng có lợi" style="rounded=1;whiteSpace=wrap;html=1;absoluteArcSize=1;arcSize=14;strokeWidth=2;" vertex="1" parent="1">
          <mxGeometry x="4135" y="2290" width="100" height="100" as="geometry" />
        </mxCell>
        <mxCell id="JvTsSQbq0CaTdlD66tWc-119" style="edgeStyle=orthogonalEdgeStyle;rounded=0;orthogonalLoop=1;jettySize=auto;html=1;exitX=1;exitY=0.5;exitDx=0;exitDy=0;entryX=0;entryY=0.5;entryDx=0;entryDy=0;" edge="1" parent="1" source="JvTsSQbq0CaTdlD66tWc-116" target="JvTsSQbq0CaTdlD66tWc-118">
          <mxGeometry relative="1" as="geometry" />
        </mxCell>
        <mxCell id="JvTsSQbq0CaTdlD66tWc-116" value="randomize while loop với ally&amp;nbsp;" style="rounded=1;whiteSpace=wrap;html=1;absoluteArcSize=1;arcSize=14;strokeWidth=2;" vertex="1" parent="1">
          <mxGeometry x="4330" y="2290" width="100" height="100" as="geometry" />
        </mxCell>
        <mxCell id="JvTsSQbq0CaTdlD66tWc-118" value="Apply thay đổi về stats và effect" style="rounded=1;whiteSpace=wrap;html=1;absoluteArcSize=1;arcSize=14;strokeWidth=2;" vertex="1" parent="1">
          <mxGeometry x="4499" y="2290" width="100" height="100" as="geometry" />
        </mxCell>
        <mxCell id="JvTsSQbq0CaTdlD66tWc-124" style="edgeStyle=orthogonalEdgeStyle;rounded=0;orthogonalLoop=1;jettySize=auto;html=1;exitX=1;exitY=0.5;exitDx=0;exitDy=0;entryX=0;entryY=0.5;entryDx=0;entryDy=0;" edge="1" parent="1" source="JvTsSQbq0CaTdlD66tWc-120" target="JvTsSQbq0CaTdlD66tWc-122">
          <mxGeometry relative="1" as="geometry" />
        </mxCell>
        <mxCell id="JvTsSQbq0CaTdlD66tWc-120" value="Attack" style="rounded=1;whiteSpace=wrap;html=1;absoluteArcSize=1;arcSize=14;strokeWidth=2;" vertex="1" parent="1">
          <mxGeometry x="3960" y="2430" width="100" height="100" as="geometry" />
        </mxCell>
        <mxCell id="JvTsSQbq0CaTdlD66tWc-126" style="edgeStyle=orthogonalEdgeStyle;rounded=0;orthogonalLoop=1;jettySize=auto;html=1;exitX=1;exitY=0.5;exitDx=0;exitDy=0;entryX=0;entryY=0.5;entryDx=0;entryDy=0;" edge="1" parent="1" source="JvTsSQbq0CaTdlD66tWc-122" target="JvTsSQbq0CaTdlD66tWc-125">
          <mxGeometry relative="1" as="geometry" />
        </mxCell>
        <mxCell id="JvTsSQbq0CaTdlD66tWc-122" value="Randomize nhưng tỉ lệ tấn công lên mục tiêu yếu máu/ không phòng vệ hoặc defense/ đồng ming trong trạng thái khiêu khích sẽ cao hơn" style="rounded=1;whiteSpace=wrap;html=1;absoluteArcSize=1;arcSize=14;strokeWidth=2;" vertex="1" parent="1">
          <mxGeometry x="4140" y="2430" width="130" height="120" as="geometry" />
        </mxCell>
        <mxCell id="JvTsSQbq0CaTdlD66tWc-128" style="edgeStyle=orthogonalEdgeStyle;rounded=0;orthogonalLoop=1;jettySize=auto;html=1;exitX=1;exitY=0.5;exitDx=0;exitDy=0;" edge="1" parent="1" source="JvTsSQbq0CaTdlD66tWc-125" target="JvTsSQbq0CaTdlD66tWc-127">
          <mxGeometry relative="1" as="geometry" />
        </mxCell>
        <mxCell id="JvTsSQbq0CaTdlD66tWc-125" value="thay đổi stats nhân vật bị tấn công" style="rounded=1;whiteSpace=wrap;html=1;absoluteArcSize=1;arcSize=14;strokeWidth=2;" vertex="1" parent="1">
          <mxGeometry x="4340" y="2430" width="100" height="100" as="geometry" />
        </mxCell>
        <mxCell id="JvTsSQbq0CaTdlD66tWc-127" value="End turn nhân vật đó, chuyển sang cycle của ally" style="rounded=1;whiteSpace=wrap;html=1;absoluteArcSize=1;arcSize=14;strokeWidth=2;" vertex="1" parent="1">
          <mxGeometry x="4499" y="2430" width="100" height="100" as="geometry" />
        </mxCell>
        <mxCell id="JvTsSQbq0CaTdlD66tWc-134" style="edgeStyle=orthogonalEdgeStyle;rounded=0;orthogonalLoop=1;jettySize=auto;html=1;exitX=0.5;exitY=1;exitDx=0;exitDy=0;entryX=0.5;entryY=0;entryDx=0;entryDy=0;" edge="1" parent="1" source="JvTsSQbq0CaTdlD66tWc-129" target="JvTsSQbq0CaTdlD66tWc-133">
          <mxGeometry relative="1" as="geometry" />
        </mxCell>
        <mxCell id="JvTsSQbq0CaTdlD66tWc-138" style="edgeStyle=orthogonalEdgeStyle;rounded=0;orthogonalLoop=1;jettySize=auto;html=1;exitX=0.5;exitY=1;exitDx=0;exitDy=0;entryX=0.5;entryY=0;entryDx=0;entryDy=0;" edge="1" parent="1" source="JvTsSQbq0CaTdlD66tWc-129" target="JvTsSQbq0CaTdlD66tWc-137">
          <mxGeometry relative="1" as="geometry" />
        </mxCell>
        <mxCell id="JvTsSQbq0CaTdlD66tWc-129" value="Check status đối tượng combat" style="rounded=1;whiteSpace=wrap;html=1;absoluteArcSize=1;arcSize=14;strokeWidth=2;" vertex="1" parent="1">
          <mxGeometry x="1870" y="1810" width="100" height="100" as="geometry" />
        </mxCell>
        <mxCell id="JvTsSQbq0CaTdlD66tWc-130" style="edgeStyle=orthogonalEdgeStyle;rounded=0;orthogonalLoop=1;jettySize=auto;html=1;exitX=0.5;exitY=1;exitDx=0;exitDy=0;entryX=0.438;entryY=-0.022;entryDx=0;entryDy=0;entryPerimeter=0;" edge="1" parent="1" source="JvTsSQbq0CaTdlD66tWc-85" target="JvTsSQbq0CaTdlD66tWc-129">
          <mxGeometry relative="1" as="geometry" />
        </mxCell>
        <mxCell id="JvTsSQbq0CaTdlD66tWc-136" style="edgeStyle=orthogonalEdgeStyle;rounded=0;orthogonalLoop=1;jettySize=auto;html=1;exitX=0.5;exitY=1;exitDx=0;exitDy=0;entryX=0.5;entryY=0;entryDx=0;entryDy=0;" edge="1" parent="1" source="JvTsSQbq0CaTdlD66tWc-133" target="JvTsSQbq0CaTdlD66tWc-135">
          <mxGeometry relative="1" as="geometry" />
        </mxCell>
        <mxCell id="JvTsSQbq0CaTdlD66tWc-133" value="Tất cả ally đều ở status không thể chiến đấu (dead hết)" style="rounded=1;whiteSpace=wrap;html=1;absoluteArcSize=1;arcSize=14;strokeWidth=2;" vertex="1" parent="1">
          <mxGeometry x="1970" y="1970" width="100" height="100" as="geometry" />
        </mxCell>
        <mxCell id="JvTsSQbq0CaTdlD66tWc-135" value="Hiển thị việc fail game và file save gần nhất" style="rounded=1;whiteSpace=wrap;html=1;absoluteArcSize=1;arcSize=14;strokeWidth=2;" vertex="1" parent="1">
          <mxGeometry x="1970" y="2100" width="100" height="100" as="geometry" />
        </mxCell>
        <mxCell id="JvTsSQbq0CaTdlD66tWc-150" style="edgeStyle=orthogonalEdgeStyle;rounded=0;orthogonalLoop=1;jettySize=auto;html=1;exitX=0.5;exitY=1;exitDx=0;exitDy=0;" edge="1" parent="1" source="JvTsSQbq0CaTdlD66tWc-137">
          <mxGeometry relative="1" as="geometry">
            <mxPoint x="1829.842105263158" y="2090" as="targetPoint" />
          </mxGeometry>
        </mxCell>
        <mxCell id="JvTsSQbq0CaTdlD66tWc-137" value="Tất cả enemies không còn khả năng chiến đấu" style="rounded=1;whiteSpace=wrap;html=1;absoluteArcSize=1;arcSize=14;strokeWidth=2;" vertex="1" parent="1">
          <mxGeometry x="1780" y="1970" width="100" height="100" as="geometry" />
        </mxCell>
        <mxCell id="JvTsSQbq0CaTdlD66tWc-142" style="edgeStyle=orthogonalEdgeStyle;rounded=0;orthogonalLoop=1;jettySize=auto;html=1;exitX=1;exitY=0.5;exitDx=0;exitDy=0;entryX=0;entryY=0.5;entryDx=0;entryDy=0;" edge="1" parent="1" source="JvTsSQbq0CaTdlD66tWc-139" target="JvTsSQbq0CaTdlD66tWc-141">
          <mxGeometry relative="1" as="geometry" />
        </mxCell>
        <mxCell id="JvTsSQbq0CaTdlD66tWc-139" value="Cơ chế flee, chạy thoát dành cho kẻ địch (?)" style="rounded=1;whiteSpace=wrap;html=1;absoluteArcSize=1;arcSize=14;strokeWidth=2;" vertex="1" parent="1">
          <mxGeometry x="3960" y="2570" width="100" height="100" as="geometry" />
        </mxCell>
        <mxCell id="JvTsSQbq0CaTdlD66tWc-144" style="edgeStyle=orthogonalEdgeStyle;rounded=0;orthogonalLoop=1;jettySize=auto;html=1;exitX=1;exitY=0.5;exitDx=0;exitDy=0;entryX=0;entryY=0.5;entryDx=0;entryDy=0;" edge="1" parent="1" source="JvTsSQbq0CaTdlD66tWc-141" target="JvTsSQbq0CaTdlD66tWc-143">
          <mxGeometry relative="1" as="geometry" />
        </mxCell>
        <mxCell id="JvTsSQbq0CaTdlD66tWc-141" value="Check số lượng kẻ địch" style="rounded=1;whiteSpace=wrap;html=1;absoluteArcSize=1;arcSize=14;strokeWidth=2;" vertex="1" parent="1">
          <mxGeometry x="4155" y="2570" width="100" height="100" as="geometry" />
        </mxCell>
        <mxCell id="JvTsSQbq0CaTdlD66tWc-146" style="edgeStyle=orthogonalEdgeStyle;rounded=0;orthogonalLoop=1;jettySize=auto;html=1;exitX=1;exitY=0.5;exitDx=0;exitDy=0;entryX=0;entryY=0.5;entryDx=0;entryDy=0;" edge="1" parent="1" source="JvTsSQbq0CaTdlD66tWc-143" target="JvTsSQbq0CaTdlD66tWc-145">
          <mxGeometry relative="1" as="geometry" />
        </mxCell>
        <mxCell id="JvTsSQbq0CaTdlD66tWc-160" style="edgeStyle=orthogonalEdgeStyle;rounded=0;orthogonalLoop=1;jettySize=auto;html=1;exitX=0.5;exitY=1;exitDx=0;exitDy=0;entryX=0.5;entryY=0;entryDx=0;entryDy=0;" edge="1" parent="1" source="JvTsSQbq0CaTdlD66tWc-143" target="JvTsSQbq0CaTdlD66tWc-159">
          <mxGeometry relative="1" as="geometry" />
        </mxCell>
        <mxCell id="JvTsSQbq0CaTdlD66tWc-143" value="nếu 2/3 hoặc về cơ bản là chỉ còn 1 mình và HP dưới 50%, đồng minh ai cũng trên 50%&amp;nbsp;" style="rounded=1;whiteSpace=wrap;html=1;absoluteArcSize=1;arcSize=14;strokeWidth=2;" vertex="1" parent="1">
          <mxGeometry x="4340" y="2570" width="100" height="100" as="geometry" />
        </mxCell>
        <mxCell id="JvTsSQbq0CaTdlD66tWc-148" value="" style="edgeStyle=orthogonalEdgeStyle;rounded=0;orthogonalLoop=1;jettySize=auto;html=1;" edge="1" parent="1" source="JvTsSQbq0CaTdlD66tWc-145" target="JvTsSQbq0CaTdlD66tWc-147">
          <mxGeometry relative="1" as="geometry" />
        </mxCell>
        <mxCell id="JvTsSQbq0CaTdlD66tWc-145" value="50/50 sẽ chạy thành công, hoặc không chạy" style="rounded=1;whiteSpace=wrap;html=1;absoluteArcSize=1;arcSize=14;strokeWidth=2;" vertex="1" parent="1">
          <mxGeometry x="4499" y="2570" width="100" height="100" as="geometry" />
        </mxCell>
        <mxCell id="JvTsSQbq0CaTdlD66tWc-147" value="Status toàn bộ kẻ địch không còn ai có khả năng chiến đấu" style="rounded=1;whiteSpace=wrap;html=1;absoluteArcSize=1;arcSize=14;strokeWidth=2;" vertex="1" parent="1">
          <mxGeometry x="4670" y="2570" width="100" height="100" as="geometry" />
        </mxCell>
        <mxCell id="JvTsSQbq0CaTdlD66tWc-152" style="edgeStyle=orthogonalEdgeStyle;rounded=0;orthogonalLoop=1;jettySize=auto;html=1;exitX=0.5;exitY=1;exitDx=0;exitDy=0;entryX=0.5;entryY=0;entryDx=0;entryDy=0;" edge="1" parent="1" source="JvTsSQbq0CaTdlD66tWc-149" target="JvTsSQbq0CaTdlD66tWc-151">
          <mxGeometry relative="1" as="geometry" />
        </mxCell>
        <mxCell id="JvTsSQbq0CaTdlD66tWc-149" value="hiển thị màn hình encounter chiến thắng" style="rounded=1;whiteSpace=wrap;html=1;absoluteArcSize=1;arcSize=14;strokeWidth=2;" vertex="1" parent="1">
          <mxGeometry x="1780" y="2100" width="100" height="100" as="geometry" />
        </mxCell>
        <mxCell id="JvTsSQbq0CaTdlD66tWc-154" style="edgeStyle=orthogonalEdgeStyle;rounded=0;orthogonalLoop=1;jettySize=auto;html=1;exitX=0.5;exitY=1;exitDx=0;exitDy=0;entryX=0.5;entryY=0;entryDx=0;entryDy=0;" edge="1" parent="1" source="JvTsSQbq0CaTdlD66tWc-151" target="JvTsSQbq0CaTdlD66tWc-153">
          <mxGeometry relative="1" as="geometry" />
        </mxCell>
        <mxCell id="JvTsSQbq0CaTdlD66tWc-151" value="Calculate EXP cộng thêm (không cộng trong combat để tránh việc nhân vật level up mid combat)" style="rounded=1;whiteSpace=wrap;html=1;absoluteArcSize=1;arcSize=14;strokeWidth=2;" vertex="1" parent="1">
          <mxGeometry x="1780" y="2230" width="100" height="100" as="geometry" />
        </mxCell>
        <mxCell id="JvTsSQbq0CaTdlD66tWc-153" value="Chuyển sang explore và looting stage" style="rounded=1;whiteSpace=wrap;html=1;absoluteArcSize=1;arcSize=14;strokeWidth=2;" vertex="1" parent="1">
          <mxGeometry x="1780" y="2370" width="100" height="100" as="geometry" />
        </mxCell>
        <mxCell id="JvTsSQbq0CaTdlD66tWc-158" style="edgeStyle=orthogonalEdgeStyle;rounded=0;orthogonalLoop=1;jettySize=auto;html=1;exitX=1;exitY=0.5;exitDx=0;exitDy=0;entryX=0;entryY=0.5;entryDx=0;entryDy=0;" edge="1" parent="1" source="JvTsSQbq0CaTdlD66tWc-155" target="JvTsSQbq0CaTdlD66tWc-141">
          <mxGeometry relative="1" as="geometry" />
        </mxCell>
        <mxCell id="JvTsSQbq0CaTdlD66tWc-155" value="Enemies có thêm viện binh (?)" style="rounded=1;whiteSpace=wrap;html=1;absoluteArcSize=1;arcSize=14;strokeWidth=2;" vertex="1" parent="1">
          <mxGeometry x="3960" y="2710" width="100" height="100" as="geometry" />
        </mxCell>
        <mxCell id="JvTsSQbq0CaTdlD66tWc-159" value="Kẻ địch sẽ spawn thêm quái vào cùng khu vực đang combat, luồng combat giờ đây sẽ thêm cycle cho người mới vào" style="rounded=1;whiteSpace=wrap;html=1;absoluteArcSize=1;arcSize=14;strokeWidth=2;" vertex="1" parent="1">
          <mxGeometry x="4340" y="2710" width="100" height="100" as="geometry" />
        </mxCell>
        <mxCell id="JvTsSQbq0CaTdlD66tWc-163" style="edgeStyle=orthogonalEdgeStyle;rounded=0;orthogonalLoop=1;jettySize=auto;html=1;exitX=1;exitY=0.5;exitDx=0;exitDy=0;entryX=0;entryY=0.5;entryDx=0;entryDy=0;" edge="1" parent="1" source="JvTsSQbq0CaTdlD66tWc-161" target="JvTsSQbq0CaTdlD66tWc-71">
          <mxGeometry relative="1" as="geometry" />
        </mxCell>
        <mxCell id="JvTsSQbq0CaTdlD66tWc-161" value="Tự động Sorting, không chiếm thêm slot với dublicate của thứ đã có mà chỉ thêm vào slot đang sở hữu vd 2 bình HP -&amp;gt; 3 BÌNH&amp;nbsp;" style="rounded=1;whiteSpace=wrap;html=1;absoluteArcSize=1;arcSize=14;strokeWidth=2;" vertex="1" parent="1">
          <mxGeometry x="3050" y="2540" width="100" height="100" as="geometry" />
        </mxCell>
        <mxCell id="JvTsSQbq0CaTdlD66tWc-167" style="edgeStyle=orthogonalEdgeStyle;rounded=0;orthogonalLoop=1;jettySize=auto;html=1;exitX=1;exitY=0.5;exitDx=0;exitDy=0;entryX=0;entryY=0.5;entryDx=0;entryDy=0;" edge="1" parent="1" source="JvTsSQbq0CaTdlD66tWc-164" target="JvTsSQbq0CaTdlD66tWc-166">
          <mxGeometry relative="1" as="geometry" />
        </mxCell>
        <mxCell id="JvTsSQbq0CaTdlD66tWc-164" value="Swap Item(s) (?)" style="rounded=1;whiteSpace=wrap;html=1;absoluteArcSize=1;arcSize=14;strokeWidth=2;" vertex="1" parent="1">
          <mxGeometry x="2750" y="1570" width="100" height="100" as="geometry" />
        </mxCell>
        <mxCell id="JvTsSQbq0CaTdlD66tWc-166" value="Thay đổi vũ khí đang dùng mid combat để dùng chỉ số có lợi và counter hơn (?)" style="rounded=1;whiteSpace=wrap;html=1;absoluteArcSize=1;arcSize=14;strokeWidth=2;" vertex="1" parent="1">
          <mxGeometry x="2920" y="1570" width="100" height="100" as="geometry" />
        </mxCell>
      </root>
    </mxGraphModel>
  </diagram>
</mxfile>
